<svg version="1.1" id="Layer_1" xmlns="http://www.w3.org/2000/svg" xmlns:xlink="http://www.w3.org/1999/xlink" x="0px" y="0px"
	 width="100%" viewBox="0 0 1024 1024" enable-background="new 0 0 1024 1024" xml:space="preserve">
<path fill="#000000" opacity="1.000000" stroke="none" 
	d="
M268.380981,526.667236 
	C269.516052,521.026245 270.787659,515.417908 271.361481,509.666870 
	C271.581238,507.464935 271.771729,505.391541 270.885223,503.321320 
	C269.314636,499.653442 269.289642,495.606506 268.344727,491.905548 
	C267.094208,487.007812 264.238159,482.261597 259.595612,479.269440 
	C258.866821,478.799805 258.148865,478.501190 258.083801,477.528351 
	C258.218567,475.631470 259.876556,475.938446 261.028076,475.470276 
	C268.034790,472.621643 273.270782,468.276917 274.805115,460.308136 
	C275.372925,457.359192 277.595551,455.077179 277.889191,451.649323 
	C278.297760,446.880188 275.611237,443.544678 274.235260,439.635803 
	C273.487640,437.511932 271.030823,438.464752 269.297058,438.319977 
	C266.656403,438.099396 264.166962,438.559937 263.928894,434.299438 
	C263.775940,431.561432 259.959625,431.582977 257.501587,430.643402 
	C257.821472,427.691284 259.959076,427.808350 261.900482,427.788055 
	C267.399414,427.730621 272.943909,427.293396 278.386810,427.839386 
	C284.830750,428.485779 285.343719,422.688538 287.168365,419.503052 
	C288.877319,416.519501 288.677429,411.690948 284.406982,408.919586 
	C279.505798,405.738892 276.075134,401.010101 271.997772,396.580902 
	C277.293243,396.906372 282.340424,396.636200 287.387970,396.697205 
	C290.044434,396.729340 292.524689,396.932526 294.431580,394.153381 
	C295.969116,391.912506 299.093628,392.261108 301.392609,392.489258 
	C303.689087,392.717133 304.148834,395.581055 303.920380,397.359985 
	C302.453217,408.783997 308.110809,418.053955 312.910339,427.488434 
	C319.677826,440.791290 319.872070,454.462616 315.569061,468.275574 
	C311.272919,482.066559 308.509155,496.169891 308.344055,510.485687 
	C308.140686,528.118469 314.059387,543.235352 329.474396,553.846863 
	C339.338043,560.636902 349.225006,567.137085 359.723053,573.018860 
	C374.878204,581.509888 390.986206,588.725342 404.268158,600.280334 
	C413.570740,608.373413 422.134735,617.281067 430.386139,626.432678 
	C433.348114,629.717773 436.600677,632.436951 440.210205,634.811646 
	C451.400513,642.173706 459.967468,652.224487 467.633240,662.879700 
	C475.304230,673.542358 483.834534,683.608765 490.528259,694.976746 
	C492.637451,698.558777 495.006195,701.988342 497.268188,705.479919 
	C500.377625,710.279663 503.965973,714.239563 509.546417,716.664612 
	C516.235535,719.571472 522.545349,723.478088 526.273438,730.287720 
	C528.709900,734.738159 534.056030,736.487305 536.362305,741.150696 
	C536.882751,742.203064 538.583313,741.959534 539.498901,741.078003 
	C542.289551,738.391296 545.558655,738.631653 548.872559,739.458801 
	C551.918640,740.219116 553.621948,739.081299 554.529724,736.192627 
	C556.102295,731.189148 559.116821,728.799805 564.820740,728.782532 
	C574.191101,728.754272 581.742920,723.924500 587.727478,717.093994 
	C593.083923,710.980469 599.639893,705.985413 603.902405,698.805054 
	C606.521667,694.392761 610.963989,692.948059 616.119080,694.746399 
	C622.539246,696.986023 629.096985,698.694275 634.721497,702.965088 
	C640.846313,707.615906 650.541809,705.718201 654.206116,699.094360 
	C657.480408,693.175598 662.641174,689.824158 668.186829,686.733398 
	C673.432678,683.809814 677.676697,680.774475 677.461304,673.491272 
	C677.290405,667.710510 682.832825,662.688721 688.988281,662.254028 
	C693.939575,661.904480 695.954163,659.157715 698.358093,655.398438 
	C705.681641,643.946289 711.793518,631.756348 719.850891,620.739624 
	C722.648132,616.915039 723.620728,611.720215 726.534363,608.024475 
	C731.579529,601.625183 731.461609,596.309814 726.208435,590.095215 
	C722.382385,585.568909 724.210571,579.270081 724.340576,574.101013 
	C724.805786,555.606689 720.179382,538.252747 714.404114,521.087463 
	C708.867004,504.630280 710.058960,487.854706 711.630554,471.133606 
	C712.381348,463.146210 710.882629,456.244324 706.239685,449.971008 
	C699.677551,441.104340 694.420898,431.500763 689.318970,421.752563 
	C681.745850,407.282440 670.704224,402.638885 654.947266,405.013824 
	C650.835999,405.633453 646.799805,406.735016 642.707031,407.496582 
	C632.091614,409.471985 626.306458,406.738068 621.557556,397.180420 
	C615.490417,384.969849 608.982849,373.018158 603.802185,360.316620 
	C597.085388,343.848969 589.093384,327.893524 575.693298,315.407745 
	C572.422058,312.359650 569.884155,308.383240 568.284973,304.214081 
	C566.385986,299.263489 562.927246,296.340912 558.406738,294.256897 
	C555.609680,292.967438 553.174683,291.199127 551.657227,288.515320 
	C548.585083,283.081848 543.563782,281.073700 537.832336,281.146973 
	C532.233215,281.218506 527.003540,279.325653 521.522949,278.966705 
	C519.188049,278.813782 517.653809,277.235382 516.094788,275.689453 
	C510.659485,270.299561 506.538483,270.173157 500.643097,274.808105 
	C494.167969,279.898865 486.743286,281.712006 478.583679,280.648956 
	C472.977814,279.918671 467.413696,278.784149 461.716034,278.906342 
	C459.520386,278.953461 457.181030,278.791748 455.472321,277.463593 
	C451.217102,274.156097 446.639618,273.063293 441.662720,274.863953 
	C439.096680,268.709595 438.329559,262.434723 435.079834,256.953827 
	C433.042267,253.517288 435.479370,248.411560 439.502747,246.311142 
	C444.669525,243.613800 445.354431,240.467743 441.853210,235.721542 
	C441.481720,235.218002 441.287933,234.561874 441.107635,233.948334 
	C441.022583,233.658676 441.164673,233.302277 441.207367,232.976471 
	C445.448944,232.043823 446.952911,236.754974 450.600037,237.793304 
	C453.132782,233.328140 453.575500,227.691513 458.921082,224.795380 
	C461.581604,231.158798 465.853149,236.566299 466.423950,243.580475 
	C466.640961,246.247131 470.277954,246.375900 470.640900,249.774963 
	C470.993530,253.077637 472.956726,256.398010 474.003296,259.830109 
	C475.234955,263.869110 478.520508,265.079071 483.011322,264.890594 
	C493.221039,264.462067 494.447266,263.556885 494.719116,253.217682 
	C494.778839,250.947052 494.310333,248.396805 497.635590,247.253433 
	C498.257721,251.707306 501.267334,255.089050 502.435089,259.394409 
	C503.422852,263.035980 509.477997,265.804596 513.475891,264.559540 
	C517.061523,263.442871 521.291382,262.222961 520.862000,256.855713 
	C520.739319,255.322754 521.343079,253.941956 522.487244,252.806244 
	C523.428223,251.872223 524.390259,250.889221 524.572754,249.479858 
	C525.556519,241.883316 527.791382,234.622086 530.247498,227.396805 
	C530.976196,225.253174 531.692078,221.989639 529.296875,221.056793 
	C525.672913,219.645355 521.434937,219.183670 517.819702,221.526611 
	C515.396057,223.097290 513.877136,225.364120 514.239685,228.665298 
	C514.625916,232.181793 512.924927,234.819138 508.533051,237.730423 
	C510.937775,231.136093 505.197449,229.082031 504.080658,224.417496 
	C502.933075,219.624344 497.409851,220.205307 493.049225,220.285126 
	C488.920898,220.360703 490.344299,224.094299 488.966766,225.752014 
	C485.519806,229.899963 485.115234,234.581924 485.188782,239.841125 
	C479.412598,237.427536 479.193115,232.012695 477.232300,227.887573 
	C475.701843,224.667892 474.086029,222.730652 470.232330,223.126877 
	C467.820740,223.374832 465.692810,222.334076 464.118011,219.643158 
	C470.256104,217.893127 475.867798,219.042313 481.646149,221.941101 
	C482.778473,217.056366 485.690063,214.833542 489.877991,213.762787 
	C491.561432,213.332352 493.077332,212.009613 494.513763,210.892685 
	C499.802124,206.780594 503.645020,206.707214 508.663635,211.230820 
	C513.615723,215.694458 519.309021,213.748291 524.813477,213.479248 
	C525.401672,213.450485 526.246094,212.505371 526.455444,211.826187 
	C528.803894,204.207245 535.280396,201.686295 541.766724,198.921799 
	C548.247925,196.159531 554.507874,193.036728 561.184143,190.560608 
	C570.848206,186.976349 581.659668,185.504135 589.782898,178.153229 
	C591.995483,176.151031 594.784363,174.767593 596.913208,172.694092 
	C606.334595,163.517593 618.188110,161.699188 630.544800,161.056442 
	C639.412109,160.595230 648.165833,161.710709 656.951416,162.486771 
	C668.005188,163.463242 676.908203,169.241882 684.606262,176.390121 
	C696.568848,187.498306 710.354736,195.886673 724.096497,204.283981 
	C733.681458,210.141129 741.255554,217.803482 746.385132,227.299316 
	C752.636658,238.871964 761.434570,246.969757 773.041504,252.528687 
	C783.420837,257.499664 793.421021,263.165283 802.777344,269.873566 
	C816.785278,279.917023 825.099365,293.779694 831.627014,309.643036 
	C842.368774,335.747162 849.007874,362.880035 853.877258,390.417938 
	C856.756470,406.701233 860.136108,423.840607 855.528381,439.978546 
	C850.795044,456.556549 848.742493,474.496613 837.289490,488.686676 
	C834.456116,492.197144 831.595459,495.255188 826.839172,496.636292 
	C821.940491,498.058807 819.090088,501.703400 818.936401,507.472717 
	C818.668823,517.515015 817.791687,527.542664 817.091553,537.570984 
	C816.880127,540.599792 817.954712,542.987732 819.767395,545.357544 
	C826.512207,554.175354 826.358215,557.071899 819.289490,565.367249 
	C817.780640,567.137878 816.244263,568.965942 815.163513,571.002625 
	C813.311523,574.492554 810.574768,576.547913 806.827087,577.595703 
	C800.814758,579.276611 795.809143,583.091919 790.436523,586.029419 
	C788.299683,587.197754 787.511108,590.899536 786.211182,593.499207 
	C785.644043,594.633301 785.334717,595.896179 784.576843,598.037048 
	C783.377625,592.658203 783.280762,588.457031 787.485718,585.709595 
	C791.056030,583.376892 790.474731,579.937927 789.405884,577.277710 
	C788.259094,574.423523 785.701050,571.941589 781.864197,572.317749 
	C779.212952,572.577698 776.924255,571.996643 775.207520,569.372131 
	C780.774353,566.759094 786.566101,564.910645 791.006897,560.070068 
	C797.690430,552.784851 797.593872,544.694275 795.504028,536.128296 
	C794.990967,534.025452 792.854797,532.557495 790.463806,531.162598 
	C790.018066,530.979065 789.784424,530.726196 789.784424,530.726196 
	C789.247131,525.772461 785.273193,524.869507 781.454041,523.716919 
	C781.205688,521.039612 782.998779,520.764221 784.947510,520.756287 
	C789.945251,520.735840 794.943420,520.733643 799.940918,520.778015 
	C800.752502,520.785156 801.919495,520.777344 802.316772,521.267273 
	C806.367981,526.264587 809.799561,524.562744 813.824890,520.938416 
	C818.021851,517.159546 815.546692,512.876038 815.344421,508.925385 
	C815.182434,505.761597 811.980835,504.935852 809.167725,505.330566 
	C801.842346,506.358459 794.771301,505.889008 787.450745,504.408936 
	C784.556763,503.823792 780.445557,505.126160 776.862427,505.228577 
	C775.275391,505.273956 773.518127,505.731598 771.896729,504.108887 
	C773.229736,501.240845 773.952332,498.132507 773.697632,494.793274 
	C773.518555,492.444916 773.792236,490.208008 771.108643,488.857513 
	C769.486023,488.040955 769.362366,486.193970 769.583435,484.440369 
	C769.958618,481.464569 771.498657,479.293396 774.470581,478.921692 
	C777.186279,478.582092 780.815308,477.385773 782.492981,479.760101 
	C784.240845,482.233643 783.906067,485.773926 781.896423,488.652466 
	C778.841309,493.028442 779.497864,499.525116 785.866760,501.275513 
	C786.842468,500.021271 785.919861,498.983582 785.267822,498.163422 
	C782.866882,495.143433 782.945557,492.454987 785.103760,489.137695 
	C787.687622,485.166290 786.007446,479.811035 781.950623,476.937103 
	C778.210449,474.287506 772.052490,475.119476 768.723694,478.724091 
	C765.388977,482.335175 765.426636,487.566589 768.857849,491.394836 
	C770.126892,492.810760 772.359192,493.741241 771.166809,496.294464 
	C770.130371,498.513885 770.018982,501.817688 767.487244,502.482758 
	C764.651306,503.227692 762.575806,500.594727 761.091125,498.486908 
	C755.962341,491.204987 754.482483,483.284607 758.330872,474.955872 
	C761.771362,467.509888 767.804138,463.586456 775.970764,462.931335 
	C777.121460,462.839050 778.271362,462.736115 779.958191,462.592377 
	C777.862854,459.050751 782.005859,456.078247 779.914490,452.143555 
	C777.303650,459.509460 772.306396,463.148621 764.734680,462.486694 
	C756.505432,461.767242 752.789185,455.857544 750.399475,449.003082 
	C748.087097,442.370270 746.939148,435.593262 748.391174,428.412109 
	C749.389893,423.472961 752.522827,424.565216 755.557861,424.860962 
	C758.892212,425.185883 759.429260,427.237610 758.804443,430.215118 
	C757.685425,435.547852 758.066162,440.795105 760.244446,445.876953 
	C761.202820,448.112854 762.317444,450.524475 765.009033,450.215942 
	C768.081421,449.863770 768.435669,447.000397 768.638184,444.445587 
	C769.071655,438.979462 768.338196,433.498108 769.336792,428.005737 
	C770.479675,421.719818 774.385437,418.289856 780.088257,416.935211 
	C786.248413,415.472015 791.117615,418.292969 794.923767,423.014954 
	C798.905396,427.954651 800.581726,433.847046 801.790100,439.929321 
	C803.020935,432.516052 800.661987,426.356018 795.954529,420.472076 
	C790.413086,413.545776 783.039062,415.630676 776.128418,415.528046 
	C773.238708,415.485077 767.369019,424.001495 767.358398,427.477997 
	C767.343689,432.309113 767.430664,437.140472 767.473267,441.971741 
	C767.488953,443.748047 768.035278,445.653809 766.058105,447.203674 
	C762.787903,445.766846 760.402222,443.835510 760.620972,439.649231 
	C760.820740,435.827789 760.668823,431.987396 760.652832,428.155396 
	C760.632202,423.221954 754.296021,419.544220 749.995544,422.179810 
	C748.251831,423.248474 745.821411,425.116699 745.769653,426.689087 
	C745.560669,433.038391 743.635193,439.645691 747.085571,445.717133 
	C748.898315,448.907135 748.586365,452.636047 751.086487,455.928101 
	C754.081299,459.871704 756.592102,463.561676 763.852112,464.277222 
	C752.803955,472.209045 753.054871,482.661835 754.813721,492.628937 
	C755.502686,496.533417 757.152893,502.005951 762.259827,504.149475 
	C761.513733,505.653625 760.190430,505.296844 759.211121,505.238739 
	C755.363953,505.010681 754.233765,507.140869 754.302368,510.490021 
	C754.322754,511.489044 754.284424,512.489136 754.285217,513.488770 
	C754.290833,520.666992 754.291809,520.666992 761.494873,520.700195 
	C766.139282,520.721619 766.139282,520.721619 768.110229,523.809326 
	C758.691528,524.337708 755.821960,530.912598 753.071289,538.542480 
	C750.270386,546.311707 751.388794,553.468323 753.664795,561.253418 
	C749.489014,561.977417 747.593506,564.487244 748.162415,568.763428 
	C748.339478,570.094360 746.963074,570.599854 746.293640,571.492981 
	C743.986816,574.570435 745.511108,577.361633 749.089905,578.824036 
	C753.796448,580.747070 758.439636,582.410950 763.797363,582.143921 
	C764.014404,582.004089 763.975525,581.978882 763.975525,581.978882 
	C763.964417,584.575928 766.477356,584.851501 767.883423,586.086121 
	C770.015198,587.957886 771.028076,590.285217 769.957886,592.744385 
	C768.908447,595.155762 766.337524,595.444702 763.968445,594.768372 
	C758.410522,593.181702 752.819397,591.654724 747.390503,589.692078 
	C743.395752,588.247864 738.670288,590.809326 738.280823,595.125793 
	C737.732605,601.202087 738.135620,602.431213 742.750366,607.806519 
	C736.886841,611.625061 729.684448,612.978882 725.914795,620.378845 
	C722.372375,627.332520 722.407898,634.117615 722.274109,641.342651 
	C716.983398,643.537781 712.204224,646.302307 707.702454,649.568726 
	C702.362610,653.443237 698.388123,665.665405 700.429626,671.998596 
	C700.975708,673.692810 702.210876,674.466064 703.735413,674.587402 
	C706.895447,674.838867 707.799377,676.301392 706.792175,679.242126 
	C705.896606,681.857056 706.737671,683.497864 709.666931,683.663696 
	C711.417908,683.762756 712.894592,684.032837 713.497009,686.098572 
	C713.947937,687.645020 715.463684,687.693665 716.828430,687.693787 
	C721.659668,687.694214 726.592957,688.292114 731.293579,687.505066 
	C736.003906,686.716370 738.708435,682.293274 741.540222,678.852356 
	C745.902466,673.551697 746.064209,667.106873 745.188232,656.167603 
	C753.847961,656.809631 757.908325,649.389343 763.674683,644.982178 
	C766.134949,643.101807 767.990173,639.198425 767.794312,635.258484 
	C767.678650,632.930969 767.466003,630.558350 767.772827,628.269836 
	C768.522644,622.677551 766.164673,618.794861 760.901550,615.727478 
	C766.661072,612.963196 772.972961,613.790588 778.147827,609.337769 
	C778.235046,614.363708 779.215637,618.348206 776.524902,621.885864 
	C771.255981,628.813293 774.499939,637.311157 780.167175,641.864136 
	C784.585632,645.413818 785.604309,649.509155 784.421631,654.675293 
	C783.067078,660.592346 782.435364,666.361938 785.656921,672.114746 
	C787.541992,675.481140 786.886292,679.186890 784.687988,682.544617 
	C779.591919,690.328552 773.851685,697.748291 770.910767,706.774536 
	C770.567139,707.828918 769.755493,708.859680 768.899292,709.598328 
	C760.636414,716.725647 755.125183,726.272400 747.450195,733.896118 
	C744.924438,736.404907 744.617737,739.872559 742.966553,742.693481 
	C734.150391,757.755310 725.115723,772.794983 712.826965,785.276733 
	C702.454041,795.812622 688.773621,798.964783 674.329590,798.805786 
	C672.444702,798.785034 670.515808,797.713562 668.705750,796.907654 
	C663.650635,794.657532 658.579895,792.669556 652.865967,793.010010 
	C650.334412,793.160828 647.921143,792.376770 645.735840,791.037231 
	C641.703064,788.565247 637.325256,788.082520 632.763550,788.852966 
	C630.924683,789.163574 629.164795,789.490479 627.792297,787.707520 
	C632.281982,785.726868 635.506348,774.643616 631.715515,771.903137 
	C627.913635,769.154785 628.544128,765.223389 627.148315,762.075867 
	C623.925781,754.808838 621.348083,747.222839 617.886230,739.985474 
	C618.437378,738.569641 619.766113,738.690796 620.839722,738.759888 
	C625.700073,739.072327 629.685974,742.676208 634.753418,742.489502 
	C635.703125,742.454529 636.252380,744.682983 635.790100,744.865723 
	C631.016785,746.752136 634.139038,750.746277 633.365784,753.638794 
	C632.943604,755.218079 633.130371,756.731934 631.445984,757.895447 
	C629.663513,759.126709 629.119263,761.114136 630.466431,763.144897 
	C631.658569,764.941956 633.030701,765.628784 635.490479,765.164246 
	C643.111450,763.724731 647.607910,759.386108 648.741028,751.538513 
	C648.971497,749.942200 649.335449,748.571045 651.164124,748.228394 
	C652.960022,747.891846 654.372192,748.245544 655.301270,750.088318 
	C657.340088,754.132324 660.724731,757.313416 662.043884,761.915588 
	C663.249268,766.120850 667.729126,765.580627 669.921204,764.042419 
	C672.161438,762.470398 674.632019,760.690125 676.538330,758.551086 
	C677.775879,757.162415 678.259521,754.965637 677.321960,753.350220 
	C673.728760,747.159424 670.056335,740.995056 666.016785,735.092224 
	C664.348816,732.654846 665.161133,729.130371 661.884644,726.941284 
	C673.763855,731.473633 682.855896,722.589966 693.390625,721.397522 
	C694.211548,725.071716 691.773560,728.774414 687.483826,729.069214 
	C683.973206,729.310486 681.668152,731.601746 679.169067,733.082275 
	C675.778076,735.091370 678.074768,739.119751 678.512390,742.263611 
	C678.847046,744.667114 680.924438,744.725464 682.793457,744.696472 
	C693.412659,744.531677 701.306824,740.425598 707.199402,730.938660 
	C711.060242,724.722778 708.946899,718.786926 709.495239,712.753235 
	C709.722412,710.252625 702.446167,703.644836 699.734924,703.409302 
	C692.554077,702.785278 685.744446,703.360901 680.354065,709.182312 
	C678.347839,711.348877 675.270325,710.607056 672.846558,709.931580 
	C671.311829,709.503906 671.671204,707.724182 673.180237,706.917603 
	C677.914856,704.386902 681.926758,700.341553 687.600342,699.777954 
	C689.967468,699.542847 690.731750,698.281250 690.678833,696.132935 
	C690.637878,694.467834 690.670593,692.801025 690.660767,691.135071 
	C690.622437,684.657959 688.576111,682.651917 682.469604,684.456543 
	C674.646606,686.768494 667.404907,690.579712 661.873108,696.750977 
	C658.187561,700.862549 654.826477,705.374023 654.603210,711.860596 
	C648.425720,708.343689 643.232849,710.725403 638.119934,713.491455 
	C636.039062,714.617126 635.695251,716.509399 637.341797,717.986816 
	C639.616333,720.027832 639.580200,722.542114 639.988037,725.283325 
	C636.682617,726.747559 634.000793,726.703796 631.185791,724.278137 
	C627.413574,721.027771 623.656677,721.677979 620.026917,724.968445 
	C617.695374,727.082092 613.976685,728.507385 611.501038,728.727966 
	C607.338440,729.098877 604.329224,731.538391 600.612671,732.337280 
	C597.046692,733.103638 598.809387,736.062378 598.110596,738.533813 
	C597.993408,739.011047 597.835388,739.139404 597.835388,739.139404 
	C590.672852,735.059631 585.727783,735.240051 579.426697,740.596619 
	C577.419128,742.303345 575.781128,741.293701 573.952454,741.363403 
	C569.147339,741.546631 563.924011,740.146240 561.625610,746.819702 
	C560.789001,749.248962 557.609802,748.503601 555.416687,747.431030 
	C550.870422,745.207581 546.444763,744.218933 541.888489,747.559509 
	C540.946594,748.250061 539.358154,748.197998 538.059570,748.241028 
	C527.115295,748.604065 521.077515,759.300598 526.610107,768.583618 
	C529.454590,773.356323 529.454590,773.356323 534.071411,774.812500 
	C529.844543,778.445496 531.844666,783.446716 531.036194,787.053589 
	C518.944885,793.511047 503.879364,790.623901 493.492950,802.812073 
	C492.655151,796.921631 491.991821,792.253906 493.428131,787.908081 
	C494.515961,784.616577 494.691864,781.440735 494.741638,778.130920 
	C494.805878,773.858582 494.738373,769.848633 497.206604,765.723145 
	C499.760223,761.455017 498.738708,756.006165 498.654663,751.021973 
	C498.651855,750.856689 498.652527,750.670715 498.581116,750.530273 
	C496.485748,746.408447 492.680542,748.611877 489.714417,748.451660 
	C487.287689,748.320679 483.043549,746.582581 482.604248,750.569519 
	C482.101715,755.130737 478.976379,758.797852 479.424438,764.099487 
	C474.392365,763.358582 469.427734,766.577698 464.893463,761.948364 
	C463.802917,760.834961 461.067230,761.562622 459.389252,762.884399 
	C457.506927,764.367249 456.312408,773.738953 457.753204,775.639771 
	C458.692535,776.878967 460.112213,776.680847 461.423920,776.730591 
	C464.418549,776.844177 467.464630,776.631042 470.394501,777.120789 
	C473.112518,777.575073 475.170776,779.443237 475.988953,782.189941 
	C476.421356,783.641479 476.343597,785.395203 474.890594,786.264771 
	C472.430847,787.736938 469.577332,787.808350 467.336639,786.138794 
	C463.707397,783.434631 459.652527,783.502380 455.510803,783.258850 
	C451.638245,783.031250 449.819580,784.538269 450.260925,788.447937 
	C450.532715,790.855530 449.480621,793.477539 451.692444,795.815308 
	C451.999695,796.000916 451.974365,795.976624 451.974365,795.976624 
	C451.071198,797.640320 452.996796,798.623840 453.027954,800.988647 
	C448.331024,799.393433 443.580750,800.049072 439.966431,802.570435 
	C435.806488,805.472595 431.164459,806.281738 426.671570,807.851501 
	C413.657684,812.398438 400.291626,812.565430 386.811249,810.914978 
	C382.668335,810.407654 378.547791,809.384888 374.888977,807.395996 
	C366.156158,802.649048 356.344971,801.002747 347.279999,797.461975 
	C334.764557,792.573242 321.491547,789.600037 309.660217,782.932495 
	C302.753143,779.039978 294.772247,777.364563 288.665985,771.672363 
	C283.060577,766.447083 277.202362,761.402100 272.331482,755.560303 
	C263.533386,745.008606 252.717209,737.324280 241.144409,730.209717 
	C229.897491,723.295471 221.507660,713.714294 216.280167,701.149292 
	C211.392227,689.400452 207.590942,677.435608 204.707626,665.087524 
	C202.823563,657.018738 205.264359,649.850220 208.932068,643.059448 
	C210.997070,639.236023 215.141022,637.610474 219.414459,637.020386 
	C224.565125,636.309265 228.334839,633.773071 229.420670,628.640869 
	C230.971649,621.309998 235.153488,615.708923 240.091309,610.462097 
	C240.892059,609.611267 241.728012,608.763000 241.249420,607.023621 
	C237.823944,605.731506 232.422333,608.516235 230.176956,601.940430 
	C238.031265,603.808044 243.667099,595.771790 252.339127,598.483521 
	C247.515228,603.983032 249.672653,610.199097 249.378708,616.083862 
	C249.067184,622.320312 257.718872,633.672424 264.376099,632.863464 
	C264.922485,633.006165 265.248932,633.264099 265.248932,633.264099 
	C265.342773,635.796326 266.774872,636.701660 269.171051,636.707336 
	C270.964996,636.711609 272.846924,636.351807 275.188110,637.823975 
	C263.878021,649.506409 270.874786,659.847168 277.981171,669.948853 
	C279.843933,672.596741 282.295380,675.584656 287.117401,674.270752 
	C284.509003,671.934998 282.136230,669.875183 279.837921,667.735291 
	C277.130798,665.214722 275.131378,662.264160 273.670563,658.790894 
	C270.114197,650.335632 271.258057,644.452759 278.611877,639.081421 
	C284.882812,634.501099 291.529663,630.435425 298.298981,625.950745 
	C300.389740,629.900940 305.263702,631.856567 302.966309,637.235291 
	C308.164978,639.633118 311.722839,643.550781 313.554504,649.063599 
	C315.349274,654.465393 313.482544,660.319214 308.911163,663.052856 
	C304.357208,665.776123 298.945343,664.748535 294.788391,660.889832 
	C291.138763,657.502014 289.273865,652.691528 285.559814,649.154663 
	C282.059845,652.022766 282.953247,655.035828 284.279877,657.976440 
	C284.811310,659.154358 285.673645,660.294312 286.654755,661.138550 
	C290.783569,664.691345 295.923279,667.889465 289.045959,673.944092 
	C292.174927,674.916504 293.434296,674.129028 293.607910,671.803040 
	C293.732605,670.132385 294.180969,668.635376 294.760101,667.047668 
	C295.884857,663.964050 297.175018,663.658325 299.113159,666.165344 
	C300.937469,668.525085 304.059631,668.555298 305.255768,667.119019 
	C309.366302,662.183716 311.686340,665.695129 314.393768,668.358215 
	C314.746277,668.704956 315.070923,669.080139 315.592743,669.639832 
	C313.398254,674.375061 309.830048,677.659973 305.048767,679.714600 
	C298.864502,674.403137 296.399567,673.941895 292.363525,678.937012 
	C290.042114,681.810059 290.287933,685.782349 293.452271,688.750854 
	C289.592621,695.258118 289.970306,699.103943 293.911835,704.382141 
	C296.295013,707.573486 299.929779,707.637268 301.793915,706.197327 
	C305.123596,703.625305 308.579956,704.094177 312.062592,703.730286 
	C314.721008,703.452515 316.156494,702.546082 315.218750,699.217407 
	C312.163971,701.144836 309.183624,705.158752 306.063995,699.919678 
	C297.576324,704.715332 296.283234,704.371460 291.627777,695.584106 
	C293.595490,694.266785 295.805664,692.787170 297.169800,691.873901 
	C297.230988,688.965576 296.125916,688.047913 295.244232,687.132751 
	C292.896881,684.696289 292.447845,682.695190 295.302948,680.070129 
	C298.198853,677.407593 300.216888,678.597717 301.917603,680.948730 
	C304.283264,684.218872 306.451447,683.460083 308.874817,681.226196 
	C310.587311,679.647705 312.250458,677.995850 314.094238,676.583801 
	C318.119293,673.501404 319.571167,670.489746 314.928192,666.563660 
	C312.109436,664.180054 315.061401,662.014587 315.985779,659.973145 
	C317.004791,657.722839 318.957153,658.366028 320.703888,659.219849 
	C330.339447,663.929138 332.088898,676.039734 324.127747,683.304504 
	C321.299835,685.885132 318.295929,688.273071 315.366058,690.741516 
	C313.799835,692.060974 312.734436,693.434692 314.938904,695.385498 
	C317.069244,694.240540 318.064941,691.360657 320.744476,690.892090 
	C322.913910,692.126465 322.528625,694.266479 322.228058,695.855347 
	C320.669647,704.094727 325.876038,709.586365 330.194702,715.227356 
	C331.998138,717.582947 332.383453,719.252197 331.259247,722.523071 
	C326.140045,718.666504 321.877502,714.973999 319.150085,709.902466 
	C317.674377,707.158447 316.363434,706.181213 314.178864,708.928711 
	C313.334503,709.990662 312.301361,710.128967 311.144867,710.324707 
	C306.653046,711.085022 304.392426,715.203430 307.077820,718.852051 
	C310.761932,723.857605 313.143829,730.302612 319.150299,733.054199 
	C323.762451,735.166931 327.772064,738.703613 333.369568,738.810364 
	C344.158356,739.016174 350.489532,729.658508 350.177277,721.723145 
	C349.910278,714.938416 346.798676,707.921204 340.695251,703.350708 
	C338.299774,701.556885 338.573059,699.625488 339.873260,696.702698 
	C344.693726,700.633911 349.578522,703.894409 351.256439,709.889526 
	C351.905731,712.209595 353.357788,712.628601 355.841309,713.143860 
	C360.319885,715.494019 363.289520,712.911316 365.663055,710.787476 
	C367.655548,709.004639 366.676117,705.972961 365.918671,703.308289 
	C364.027130,696.653748 357.722137,693.563416 354.060577,688.305115 
	C352.125671,685.526428 348.383270,682.707092 343.416046,684.962585 
	C352.462616,688.425476 358.580963,694.640869 362.891144,702.851074 
	C364.521362,705.956421 363.910767,708.332031 361.233734,710.209229 
	C359.616791,711.343079 357.738251,712.103821 355.977234,713.032166 
	C354.059753,706.846191 350.972443,701.413330 345.661102,697.508972 
	C343.201019,695.700562 340.253876,693.838013 337.492493,696.132812 
	C334.628845,698.512756 336.795044,701.378967 338.204865,703.749329 
	C340.242004,707.174561 342.668182,710.369019 344.691284,713.801697 
	C348.737579,720.667175 348.449280,726.451904 344.043732,731.277954 
	C339.783875,735.944458 332.471436,737.299805 326.086548,734.166382 
	C319.367065,730.868774 314.192566,725.796448 310.425537,719.275940 
	C308.589691,716.098083 308.817169,713.725830 312.274567,711.858704 
	C315.681335,710.019043 317.689545,710.803223 319.278534,714.374329 
	C321.138306,718.553894 324.263977,721.826599 328.349152,723.992188 
	C330.542206,725.154846 332.918213,725.408813 334.773254,723.347229 
	C336.546875,721.376160 335.710541,719.230103 334.499237,717.358276 
	C332.513367,714.289490 330.348663,711.336853 328.271362,708.326904 
	C321.367157,698.322754 322.116791,692.890320 331.592743,685.162903 
	C331.249420,683.844238 328.115753,684.211853 329.687866,681.354675 
	C334.194519,673.164185 332.206299,665.120422 324.949066,659.563416 
	C322.410278,657.619446 320.909668,653.791504 316.267578,655.566589 
	C314.953308,650.816162 316.520020,645.771484 312.885101,641.718445 
	C308.901703,637.276794 305.377258,632.444275 302.362396,627.129822 
	C300.434784,623.731995 295.747345,623.368164 291.151978,625.755615 
	C294.424622,622.053955 293.413055,617.980896 293.698578,614.085571 
	C294.419556,604.249695 289.487091,597.209717 282.256958,591.625916 
	C280.431213,590.215881 280.471558,589.294556 281.192963,587.289734 
	C283.261292,586.624512 284.158997,584.878723 283.091827,584.209045 
	C280.081390,582.319824 281.185699,578.998169 279.839844,575.906860 
	C278.462158,580.324890 281.219208,583.491760 281.017151,587.019531 
	C267.188477,590.528992 253.377991,594.113342 239.516083,597.486267 
	C236.665771,598.179810 233.351624,600.063416 230.933319,596.399658 
	C229.918549,594.862244 227.393799,593.532349 229.394058,591.360901 
	C231.447021,589.132263 232.139740,592.774841 234.553207,593.100891 
	C233.777771,585.614990 239.771271,585.869568 244.283951,584.296265 
	C247.358627,583.224243 250.785187,583.224609 254.160278,581.149719 
	C249.361618,578.082581 244.931290,575.253540 240.504120,572.419495 
	C239.096390,571.518372 237.583420,570.632507 236.972031,569.005981 
	C235.889297,566.125488 233.355652,562.663513 235.701401,560.202148 
	C238.097092,557.688293 240.751511,561.081177 243.041382,562.372437 
	C252.653580,567.792786 252.642258,567.863159 259.714783,558.948181 
	C262.193268,555.824097 264.557434,552.609009 266.954407,549.420898 
	C267.439331,548.775940 267.836823,548.065247 268.002686,547.109192 
	C265.327515,548.580566 262.667358,549.900574 261.095154,552.819946 
	C259.634735,555.531738 258.146698,558.171814 255.604462,560.275513 
	C252.348724,562.969727 249.372116,563.151062 245.714157,560.716492 
	C242.409851,558.517273 239.192825,555.711060 234.674484,556.208923 
	C233.159531,556.375793 231.679733,556.295044 230.803009,557.890198 
	C229.868118,559.591064 230.324097,561.111267 231.328247,562.547302 
	C231.594620,562.928345 232.477036,563.155701 232.461380,563.416748 
	C231.899704,572.786194 239.640900,575.365540 245.487473,579.516479 
	C245.919891,579.823547 245.997818,580.629944 246.674301,582.230286 
	C240.892319,581.255432 236.436447,583.980164 231.537415,584.787720 
	C228.967285,585.211304 227.118408,585.910583 225.424408,588.263000 
	C223.888199,590.396301 222.461594,591.837585 223.819122,594.596680 
	C224.367233,595.710693 224.024292,597.202820 222.615646,598.023376 
	C218.195633,590.876831 219.758057,585.380127 227.195572,581.467773 
	C233.051193,578.387512 232.891815,578.456299 230.206528,572.221924 
	C228.110855,567.356445 228.362564,562.165955 229.437195,557.087341 
	C230.071152,554.091431 231.919846,552.147095 235.245224,551.767029 
	C237.003357,551.566101 238.897629,551.341736 240.689713,549.495789 
	C235.887619,540.174561 230.742371,531.381348 217.189316,532.224609 
	C219.662216,529.359558 221.610489,530.008850 223.310181,529.989746 
	C236.294083,529.843750 249.279541,529.824280 262.262909,529.648254 
	C264.072601,529.623718 266.387695,530.648254 267.771332,527.568420 
	C268.137543,526.918152 268.259247,526.792664 268.380981,526.667236 
M428.655273,751.198669 
	C430.616058,751.046692 432.574615,750.843323 434.538300,750.759155 
	C436.098206,750.692200 438.034027,750.942078 437.971741,752.785645 
	C437.834381,756.852051 439.787018,760.979614 436.069031,764.964539 
	C433.318207,767.912842 434.131805,773.092224 431.405182,776.549133 
	C431.169342,776.848145 431.218140,777.645691 431.453766,777.998535 
	C433.107117,780.474060 434.932922,783.281799 437.992432,783.533386 
	C441.348114,783.809509 444.880188,785.100342 448.038910,781.424438 
	C451.828003,777.014954 451.816254,771.302673 453.033051,766.544128 
	C454.362671,761.344299 456.359558,755.245789 453.962402,749.038452 
	C452.188721,744.445740 447.735748,739.505005 442.818268,738.141968 
	C438.844147,737.040466 434.182556,737.488342 431.000275,735.533813 
	C426.184265,732.575806 421.571991,731.671143 416.441162,732.987671 
	C414.815430,727.541748 414.815430,727.541748 405.276581,724.983521 
	C406.261688,727.575623 408.850220,727.909485 410.795593,728.959106 
	C413.135406,730.221436 413.853333,731.480103 412.614807,734.075806 
	C406.167389,747.588684 399.785553,761.134460 393.552521,774.747314 
	C391.200684,779.883667 388.280945,776.715515 385.381073,775.746643 
	C382.079163,774.643433 381.440704,772.793213 383.016083,769.648376 
	C386.143341,763.405701 389.051117,757.051880 391.988220,750.715637 
	C395.592987,742.938904 399.134949,735.133118 402.588654,727.591919 
	C401.266052,726.065063 400.005157,726.437012 398.877930,725.478027 
	C401.052490,719.943359 396.854218,718.468262 393.199646,717.027100 
	C388.111206,715.020325 382.163422,716.691162 380.547333,720.577209 
	C378.334473,725.898499 375.924194,731.059875 372.844879,735.963806 
	C368.868622,742.296204 365.251709,748.856812 361.559174,755.364014 
	C358.117645,761.428833 358.036774,761.557312 361.545410,765.882874 
	C363.659943,768.489807 366.847107,769.852844 370.011139,770.539673 
	C374.175873,771.443665 372.927460,767.022705 374.492157,765.345337 
	C381.349426,757.994568 384.249969,748.249573 389.965088,740.306213 
	C391.963348,737.528870 391.102448,732.415344 396.203827,732.775635 
	C396.241577,735.406189 395.510559,737.646851 394.448425,740.180969 
	C392.892456,743.893250 389.990204,746.736511 388.939453,750.842834 
	C387.784210,755.357544 385.311737,759.677124 382.753662,763.657898 
	C378.828522,769.765869 379.179108,773.556824 384.804108,777.085022 
	C385.190247,777.327209 385.501740,777.777527 385.710388,778.199097 
	C387.017761,780.840271 389.086884,780.923706 391.617767,780.251221 
	C394.268982,779.546753 396.238098,778.245300 396.547119,775.391479 
	C396.751617,773.502686 397.630127,772.067871 398.477417,770.432556 
	C401.110382,765.350830 403.903412,760.207520 405.438354,754.751587 
	C406.486664,751.025391 409.749054,748.979980 409.761505,744.974976 
	C410.924927,745.588623 411.345520,745.668274 411.468323,745.903442 
	C411.767548,746.476562 412.044250,747.106567 412.127563,747.740295 
	C412.955994,754.042542 409.066650,758.953125 406.950714,764.345398 
	C406.458557,765.599487 405.354767,766.664185 405.305878,768.243774 
	C405.143951,773.474304 407.176453,774.522583 414.950165,773.145813 
	C408.463104,769.969849 408.273895,769.773071 409.598175,765.546387 
	C412.232727,757.137817 414.861298,748.725281 417.684357,740.379272 
	C418.419952,738.204590 418.456879,734.530090 421.635773,734.889893 
	C425.071259,735.278748 429.530518,735.155212 430.442688,740.217957 
	C431.582611,739.990540 432.560608,739.799194 433.537018,739.599915 
	C444.185120,737.427307 453.597992,745.076416 452.884064,755.856934 
	C452.353088,763.874451 448.907715,771.275085 446.344757,778.796692 
	C444.788605,783.363647 440.985901,780.493469 438.177490,779.939087 
	C435.251526,779.361511 434.689667,777.311340 435.592957,774.605652 
	C437.330383,769.401611 439.103577,764.202881 440.599854,758.927551 
	C441.553528,755.565247 441.490967,752.047729 437.968140,750.100891 
	C434.621094,748.251343 431.042267,747.527832 427.464539,751.409424 
	C423.519897,758.116943 421.952087,765.552185 420.427521,773.006409 
	C421.815735,769.236694 424.163422,765.962341 425.175476,761.888855 
	C426.053497,758.354919 427.737976,754.829895 428.655273,751.198669 
M726.200745,329.593414 
	C726.375488,331.049591 726.731750,332.610107 728.524170,331.062897 
	C731.691772,328.328735 734.135315,329.590607 736.421570,332.445160 
	C737.891968,331.510590 739.337891,330.911499 740.355652,329.887085 
	C743.975647,326.243408 745.454346,329.705780 747.253052,331.878326 
	C749.199890,334.229645 751.452393,336.751038 747.649414,339.363251 
	C744.354736,341.626282 743.635315,344.085480 746.645874,347.054047 
	C749.503052,349.871368 747.271179,351.195648 745.207458,352.876129 
	C742.921082,354.737915 740.752136,355.713867 739.111328,352.519775 
	C736.865234,348.147461 734.262024,348.236328 730.986572,351.253448 
	C729.888245,352.265167 728.657837,353.138580 727.454956,354.030884 
	C720.019043,359.546997 720.015930,359.542816 725.623230,366.699951 
	C724.459351,368.854340 723.464050,371.593048 721.135376,372.397797 
	C717.743835,373.569794 716.617554,369.060852 713.638306,368.328552 
	C713.079529,371.229462 713.178955,373.856934 716.856323,373.571411 
	C722.033630,373.169403 722.634888,376.067841 722.340698,380.065308 
	C722.218811,381.721893 722.307495,383.396759 722.351562,385.061951 
	C722.392273,386.597595 729.793335,396.155396 731.247192,396.371277 
	C732.204651,396.513458 733.207581,396.184875 733.938599,394.859924 
	C729.529114,392.803253 726.779602,389.333832 725.108154,384.747498 
	C722.517639,377.639343 723.766968,372.681427 729.497437,369.150665 
	C734.533447,366.047760 739.900391,367.619354 744.831360,373.166382 
	C747.821960,376.530579 749.122009,380.941406 752.071594,384.521606 
	C755.964539,382.065491 755.837402,378.925842 754.061584,375.765686 
	C752.528259,373.037109 750.967896,370.191589 748.155151,368.449188 
	C745.732483,366.948456 745.538391,365.083862 747.424561,363.117523 
	C748.648254,361.841858 749.166382,359.826050 751.187805,359.311218 
	C754.816772,360.599976 757.011597,363.889099 760.308228,366.161163 
	C760.000244,361.464233 756.696777,357.914734 752.708618,357.503815 
	C748.856445,357.106964 746.348511,360.124298 744.437683,368.128662 
	C739.555176,363.567322 733.980713,363.724976 728.190735,364.979706 
	C726.559937,365.333130 725.955994,364.034912 725.749146,362.518738 
	C725.160461,358.203979 728.528076,356.608337 731.201111,354.636627 
	C733.781494,352.733307 736.391052,353.262054 738.036316,355.863922 
	C739.333313,357.915131 741.021484,357.948303 742.769043,357.518555 
	C747.264404,356.412842 750.181641,351.004089 749.089417,346.298889 
	C748.740356,344.794952 747.617859,343.337128 749.179016,341.718292 
	C751.907288,338.889099 751.124451,335.384674 749.833313,332.446167 
	C748.800476,330.095703 749.222900,326.164001 744.625732,326.298584 
	C740.382935,326.422791 736.166199,328.262512 731.842712,326.485321 
	C730.706299,326.018188 729.705078,326.937622 729.121521,328.142548 
	C728.466064,329.496033 727.227844,329.205231 725.820374,328.070801 
	C725.165466,323.988586 727.171814,319.301758 724.754089,315.842926 
	C720.112061,309.202148 716.080688,301.594238 706.752319,299.948212 
	C705.020203,299.642578 703.917175,296.222168 701.432312,298.663116 
	C699.795654,300.270813 698.014771,301.672485 697.060486,303.998932 
	C696.260498,305.948975 697.248596,307.916748 696.420837,309.864594 
	C693.976624,310.416809 691.617737,310.650909 689.241943,309.783783 
	C689.364441,309.127777 689.364441,308.784637 689.494690,308.501404 
	C689.769226,307.904358 690.011597,307.247528 690.441956,306.773956 
	C696.228699,300.405670 697.788879,292.869781 696.689087,284.567230 
	C696.580627,283.747925 696.575806,282.892639 696.673279,282.071930 
	C697.232910,277.358124 694.365051,274.446808 691.696167,271.026154 
	C685.947998,263.658752 677.308228,259.841675 671.022583,253.210236 
	C670.066284,252.201355 668.428650,251.938568 666.896301,253.466537 
	C673.224609,258.077759 679.462402,262.445984 685.507019,267.066986 
	C695.806580,274.940948 698.690674,289.052185 692.348633,299.686127 
	C685.393372,311.348328 672.974426,315.346039 660.446472,309.796082 
	C652.306824,306.190155 645.592957,300.359802 638.430603,295.239075 
	C636.084106,293.561523 636.515869,291.747314 638.022095,289.706116 
	C641.971313,284.354370 646.006714,279.053650 649.682373,273.516602 
	C652.761353,268.878510 656.589722,264.593903 658.815918,258.210785 
	C655.377808,259.497833 653.516724,261.033142 652.599365,263.092407 
	C649.204651,270.713257 643.430237,276.719666 638.644165,283.327728 
	C636.261353,286.617706 636.217529,290.664185 633.522095,293.621613 
	C632.764099,294.453339 633.474670,295.983856 635.133057,296.636993 
	C641.209473,299.030090 646.016724,303.487671 651.261841,307.174866 
	C655.332642,310.036560 659.257446,312.331360 664.381287,312.810028 
	C669.282898,313.267914 674.084290,315.365631 678.993103,312.844482 
	C679.275330,312.699554 679.874939,313.172699 680.324524,313.357269 
	C676.077942,324.920990 677.093140,331.253906 691.124573,340.842316 
	C693.013489,342.133057 694.102783,341.571320 695.148438,339.324310 
	C690.883362,338.162933 687.576782,335.737854 684.734253,332.724976 
	C680.103699,327.816895 679.660095,320.414734 683.585205,315.870697 
	C687.823425,310.963989 692.660217,310.618988 699.220154,314.680786 
	C701.808105,316.283234 703.863892,318.440063 705.920349,320.631104 
	C707.125366,321.915009 708.040710,323.657166 710.310730,323.873688 
	C712.723145,320.860901 711.850220,318.048584 709.779114,315.370300 
	C707.694092,312.673920 704.841858,310.972809 701.838135,309.450134 
	C697.889465,307.448456 700.380676,304.573578 701.122742,302.114594 
	C701.981750,299.267853 703.997253,300.121399 705.954651,300.981689 
	C712.084900,303.675964 716.937500,307.935577 720.601990,313.432465 
	C724.447815,319.201385 723.943787,325.904419 719.586182,331.501923 
	C716.403198,335.590576 712.578247,339.059082 708.717834,342.484436 
	C706.605408,344.358734 704.757874,346.905945 702.287170,347.908997 
	C699.065979,349.216675 698.293701,344.435120 695.477661,343.913544 
	C695.331116,343.886383 695.162354,343.979370 694.997864,344.014954 
	C694.228760,344.625763 694.178406,345.533478 694.485352,346.263245 
	C696.432922,350.893311 703.247864,352.334808 706.851929,348.818329 
	C709.080994,346.643433 710.872803,343.987549 713.234253,341.988586 
	C717.156677,338.668121 721.575989,335.878296 722.805603,330.363464 
	C723.218201,328.513184 724.597290,328.732574 726.200745,329.593414 
M534.051758,208.806564 
	C532.315857,213.973801 532.800781,218.633987 537.657104,222.123810 
	C535.737366,223.604706 533.278137,223.689133 533.291504,226.393341 
	C533.345581,237.322128 530.235535,248.014221 531.097107,259.061096 
	C531.418945,263.187073 532.185730,265.409576 536.667358,265.066345 
	C537.810303,264.978790 538.980469,265.344086 540.142761,265.394409 
	C545.257019,265.615997 546.668091,264.283508 546.767273,259.157379 
	C546.910278,251.765076 545.440247,244.066681 550.988464,237.575897 
	C552.523865,237.938126 554.121948,238.256393 555.169067,239.998611 
	C550.418457,246.746140 552.711609,254.419922 552.473755,261.783417 
	C552.450256,262.510376 553.004395,263.379761 553.524109,263.981079 
	C557.817993,268.948486 563.576477,271.190948 569.851990,271.654266 
	C573.957336,271.957336 577.834473,271.814178 581.776733,273.838898 
	C586.406128,276.216553 590.393005,274.848816 591.568115,271.677643 
	C593.635681,266.098236 595.739807,260.532349 597.836609,254.963776 
	C599.204590,251.330826 602.309753,252.867706 604.709534,252.879623 
	C607.355225,252.892776 607.256287,254.909073 607.493958,257.125336 
	C608.093079,262.712250 604.814331,267.167389 603.336182,272.026886 
	C601.179993,279.115082 604.206238,284.475739 611.848083,284.692627 
	C618.432495,284.879547 618.545898,278.578400 620.127625,275.312897 
	C622.637512,270.131073 622.982117,263.946533 625.959778,258.523254 
	C627.420410,255.863098 628.501709,251.322510 623.961304,248.961304 
	C622.932983,248.426575 622.658875,247.390015 622.737671,246.404480 
	C623.070007,242.248505 619.987488,241.150116 617.049255,240.017746 
	C613.005127,238.459152 609.391663,235.946594 604.639404,235.458649 
	C607.194336,230.248138 607.718567,225.664047 606.227356,221.069046 
	C604.452271,219.937439 602.481445,220.697464 600.870605,219.384323 
	C597.481323,216.621429 593.273682,217.459702 591.637756,221.281616 
	C589.362976,226.596024 587.380554,232.118683 585.709290,237.573853 
	C583.410217,245.078125 580.868713,252.337891 576.988037,259.648590 
	C574.752991,257.146362 570.775146,257.081299 569.410461,254.785629 
	C567.695312,251.900482 568.035095,247.839203 569.214661,244.573334 
	C570.284363,241.611969 573.547913,243.008057 575.884277,242.676788 
	C577.771606,242.409164 580.001709,243.338837 581.285095,241.099258 
	C583.212952,237.734894 581.066101,230.967575 577.462769,229.124481 
	C576.019653,228.386322 574.572388,227.237717 575.155029,225.730118 
	C576.757935,221.583023 573.592773,220.012650 571.305786,218.155563 
	C568.861084,216.170334 559.883850,217.039688 559.575684,219.197403 
	C559.064880,222.774216 556.238464,223.185745 553.954468,224.663101 
	C550.373535,226.979370 549.502808,224.549576 548.925171,222.015854 
	C548.460693,219.978012 549.286377,218.014542 551.118652,216.831696 
	C553.137634,215.528259 552.938904,213.668503 552.308044,211.972046 
	C549.141846,203.457611 541.003174,201.744888 534.051758,208.806564 
M681.636719,293.982635 
	C685.743835,286.086060 684.621765,280.141235 677.832703,274.517395 
	C675.918457,272.931732 673.626282,271.781372 671.809570,270.104034 
	C669.204346,267.698669 667.470581,268.603851 665.755554,271.067200 
	C662.619751,275.571289 659.472778,280.068848 656.251465,284.511871 
	C649.735596,293.498810 650.507507,291.416687 658.690674,297.388214 
	C667.626770,303.909149 673.892395,302.970001 681.636719,293.982635 
M765.431152,387.359802 
	C763.520691,391.157990 761.012878,394.317291 757.021484,396.214508 
	C752.673035,398.281525 748.445496,400.603729 744.172791,402.829132 
	C737.358521,406.378235 737.365479,406.380646 733.431763,399.955719 
	C733.323669,399.779053 732.873718,399.811768 732.734436,399.780640 
	C730.150146,404.724304 734.902222,405.960327 737.280029,408.091522 
	C739.058777,409.685791 740.592346,407.332794 742.316589,406.548340 
	C748.648315,403.667480 754.266296,399.640320 760.295471,396.307220 
	C765.239624,393.574036 768.245422,390.148895 767.687378,384.207947 
	C767.470459,381.898071 767.687500,379.550720 767.613708,377.223419 
	C767.487610,373.244049 765.540344,370.285034 761.495850,366.891357 
	C763.930908,374.172882 767.928772,379.812622 765.431152,387.359802 
M796.277832,488.135651 
	C795.967102,493.473480 792.727844,497.364105 789.158447,501.415924 
	C793.057800,501.964294 794.692078,498.939453 795.631897,497.212463 
	C799.528931,490.051575 799.049255,482.483887 796.597168,474.756317 
	C794.858276,469.276276 789.428467,463.726990 785.447876,464.555298 
	C794.559875,472.964752 796.281616,476.570343 796.277832,488.135651 
M703.335327,328.529114 
	C701.631165,326.483307 700.023804,324.281952 697.645996,322.994476 
	C695.054077,321.591156 692.322937,321.891113 691.633484,324.983978 
	C690.737061,329.005280 693.886536,331.102814 697.071716,332.249542 
	C699.941467,333.282623 703.118103,333.501434 703.335327,328.529114 
M726.211670,335.219025 
	C725.589966,335.133118 724.187317,333.879395 724.492249,335.149139 
	C725.440002,339.095734 722.227112,341.303101 720.297241,341.910339 
	C712.738403,344.288788 710.772949,350.951294 707.560425,356.705994 
	C707.121887,357.491577 707.047913,359.023621 708.823608,359.589935 
	C709.429016,358.654449 710.430969,357.763153 710.599609,356.735168 
	C711.461487,351.481079 714.851807,348.343811 719.090881,345.700867 
	C721.330688,344.304382 723.409180,342.618988 725.428040,340.907776 
	C727.093201,339.496399 728.848267,337.919037 726.211670,335.219025 
M303.764801,649.653870 
	C302.962921,646.203491 300.971313,643.749817 297.597473,642.586609 
	C296.113220,642.074890 294.657501,642.409119 293.436401,643.458374 
	C292.564117,644.207947 292.425568,645.117126 293.013702,646.098572 
	C294.364990,648.353394 295.428284,650.918335 297.629272,652.437866 
	C300.329895,654.302307 302.922455,654.697632 303.764801,649.653870 
M739.316772,379.289764 
	C736.311035,377.701141 734.041992,378.970612 733.800720,381.886230 
	C733.487671,385.669312 735.724426,388.491028 739.448425,389.737976 
	C740.883423,390.218445 742.470642,390.235260 743.691833,389.119232 
	C745.213013,387.729126 744.022583,386.358612 743.411499,385.069031 
	C742.488159,383.120453 741.556152,381.158020 739.316772,379.289764 
M274.410797,548.946289 
	C273.774872,547.932007 273.119232,546.959656 270.789795,548.047546 
	C276.609161,556.708923 270.688812,563.724182 266.652435,571.097046 
	C275.055634,565.841736 275.151489,557.867554 274.410797,548.946289 
M790.303955,446.550781 
	C790.335754,445.808502 790.879578,444.976807 789.567871,444.148041 
	C789.276733,447.062012 785.795532,449.332489 788.361206,452.372437 
	C789.648865,453.898132 791.751648,454.073273 793.980042,452.464386 
	C791.706909,451.116547 789.102478,450.315857 790.303955,446.550781 
M273.698303,575.416199 
	C271.133118,575.322998 268.513702,575.632324 265.614899,573.418701 
	C267.682800,577.542297 268.787109,577.723206 273.698303,575.416199 
M335.487000,682.300415 
	C335.390900,682.434387 335.251312,682.556641 335.211182,682.705688 
	C335.173126,682.847168 335.186768,683.117065 335.267303,683.159119 
	C337.293182,684.219055 339.258636,683.977051 341.485657,682.959473 
	C339.627869,681.413635 337.954468,680.758911 335.487000,682.300415 
z"/>
<path fill="#000000" opacity="1.000000" stroke="none" 
	d="
M325.951141,300.289856 
	C315.785065,298.330353 308.957794,303.446960 304.363190,310.661346 
	C300.167603,317.249207 297.110077,324.990356 302.699280,332.855591 
	C303.085083,333.398468 303.073029,334.548096 302.766968,335.185577 
	C302.261505,336.238312 301.178101,335.963409 300.137177,335.841217 
	C297.539429,335.536194 296.239441,333.337982 294.685028,331.841827 
	C292.180511,329.431213 289.699432,327.125916 286.316193,326.311188 
	C283.957642,325.743225 284.867401,322.457428 281.929718,322.181763 
	C277.590118,321.774567 272.963379,323.730713 271.360199,328.029053 
	C270.794128,329.546844 270.376709,331.037231 268.556396,332.134674 
	C275.831818,338.225464 282.620270,343.908569 289.378723,349.566589 
	C287.824585,351.765381 286.143250,351.398956 284.807922,351.209412 
	C275.541016,349.894318 270.438782,356.059235 265.732513,362.222076 
	C262.486359,366.472961 260.059845,371.396271 261.229340,377.282837 
	C261.815979,380.235535 260.568329,383.732910 264.506561,385.392181 
	C265.522552,385.820190 265.471893,387.277161 264.763245,388.000305 
	C263.796448,388.986847 262.414948,388.754059 261.931061,387.486572 
	C261.054871,385.191589 259.377319,384.050873 257.181030,383.553802 
	C254.583023,382.965851 252.469498,383.368073 252.222336,386.659546 
	C252.160095,387.488281 252.336899,388.636688 251.871567,389.082001 
	C249.668152,391.190582 248.148819,393.779968 249.454712,396.553253 
	C251.131958,400.115173 253.949432,403.101929 257.075989,405.493652 
	C259.345642,407.229828 260.963196,409.278564 263.062103,412.300507 
	C258.049316,412.300507 253.778870,412.297577 249.508423,412.301208 
	C242.768143,412.306946 237.864120,418.592926 239.243866,425.253784 
	C239.697250,427.442413 241.066147,427.784027 242.856552,427.797455 
	C245.687561,427.818665 248.519714,427.803101 251.348969,427.885773 
	C252.439484,427.917603 253.268295,428.435913 253.221146,429.726807 
	C253.181641,430.808228 252.378296,431.239349 251.543304,431.150543 
	C244.945175,430.449097 240.624817,435.214996 235.021347,437.968811 
	C234.837540,437.676544 234.261414,437.119965 234.371750,436.882996 
	C236.729050,431.820831 234.862213,426.803680 234.758636,421.710693 
	C234.632034,415.486053 238.926544,410.603485 245.011566,408.178833 
	C247.909058,407.024292 250.211945,405.192474 248.436249,402.294891 
	C242.871674,393.214691 248.330704,385.568695 251.355789,377.784912 
	C252.848434,373.944275 253.294815,370.965637 250.779037,367.614349 
	C247.242645,362.903595 247.545212,358.008118 250.602081,353.170197 
	C253.824280,348.070679 257.615784,343.874634 264.399170,344.050079 
	C270.974609,344.220184 271.870300,342.938721 269.386993,336.942413 
	C267.407898,332.163727 264.775909,327.625183 270.066162,323.038574 
	C274.656372,319.058929 279.296967,315.906525 285.679962,318.017426 
	C289.594879,319.312134 292.112000,316.646881 294.513489,314.659943 
	C297.023926,312.582855 299.069183,309.788513 300.840485,307.004059 
	C305.032318,300.414764 310.698395,296.357574 318.575378,295.695465 
	C322.538696,295.362335 325.125549,293.890015 325.273193,289.357483 
	C325.361786,286.636963 326.531219,283.785889 328.966675,282.562469 
	C336.293518,278.881897 340.601562,271.727448 347.286499,267.283661 
	C351.504913,264.479523 355.744476,262.859985 360.749603,262.886383 
	C366.147980,262.914917 370.731750,261.962372 373.239471,255.977951 
	C374.814301,252.219788 378.194550,249.146423 382.018585,247.404404 
	C387.477417,244.917587 390.743866,239.247070 396.787689,237.713577 
	C399.172852,237.108383 401.280334,236.152893 403.989807,237.160690 
	C406.147125,237.963120 408.774048,236.744995 410.494690,235.294708 
	C413.833435,232.480438 417.572693,232.004776 421.668640,231.973145 
	C426.261078,231.937714 429.978271,228.852188 434.371429,227.904053 
	C436.507385,227.443039 438.409637,226.578918 441.493225,229.596878 
	C435.051788,227.323242 433.515778,233.168091 429.058044,234.154770 
	C426.307861,234.763489 423.440430,236.397247 420.350616,236.137848 
	C416.048218,235.776642 414.701996,237.808090 414.931885,241.741302 
	C415.120758,244.972214 415.823883,248.287964 414.157043,251.920654 
	C405.755707,246.987442 398.731750,242.977097 387.885864,248.431229 
	C377.629517,253.588898 376.552704,262.345612 371.999176,270.473755 
	C367.631104,266.755127 362.239075,268.636536 357.145782,268.242950 
	C351.123505,267.777588 346.772308,271.869385 343.968628,275.723022 
	C340.493042,280.500214 335.576324,281.709991 331.157501,284.207672 
	C328.169952,285.896393 328.937531,288.113892 329.942047,290.083832 
	C331.412384,292.967377 332.404572,296.147125 335.016541,298.609344 
	C332.320160,301.258789 329.190308,299.858643 325.951141,300.289856 
z"/>
<path fill="#000000" opacity="1.000000" stroke="none" 
	d="
M486.778503,238.885330 
	C487.799225,235.649979 488.974060,232.855057 489.573212,229.941742 
	C490.508453,225.393829 493.739441,224.479126 497.599060,224.007858 
	C501.767365,223.498901 502.475098,226.675262 503.624298,229.376480 
	C506.067902,235.120102 508.441650,240.893463 511.356201,247.882950 
	C513.461548,240.836380 515.370178,235.207642 516.780579,229.456711 
	C517.698547,225.713379 520.603394,224.211044 523.324341,222.428955 
	C524.427612,221.706375 525.958801,221.683273 527.140808,222.487030 
	C528.482849,223.399582 528.190125,224.871246 527.824646,226.140106 
	C524.836060,236.517029 521.777161,246.873688 518.783020,257.249023 
	C517.951355,260.131134 515.911011,261.179779 513.158997,261.176178 
	C510.236450,261.172363 507.130280,261.842651 505.488556,258.165497 
	C502.923401,252.420105 500.122711,246.779861 497.137207,240.496017 
	C494.336212,245.436096 493.553131,250.532455 491.675201,255.193512 
	C490.384613,258.396729 489.637451,262.938782 485.435852,262.547974 
	C481.331207,262.166199 477.232269,260.063049 475.348145,255.583008 
	C472.061951,247.769089 468.757904,239.962585 465.433258,232.164948 
	C464.454315,229.868958 462.769806,227.372940 466.417603,226.012650 
	C469.626282,224.816116 473.025665,223.961044 474.878571,228.239578 
	C477.388977,234.036194 479.842102,239.857590 482.333710,245.662369 
	C482.653076,246.406403 483.055725,247.114685 483.972717,248.940414 
	C485.056976,245.060623 485.865723,242.166656 486.778503,238.885330 
z"/>
<path fill="#000000" opacity="1.000000" stroke="none" 
	d="
M267.835693,527.234009 
	C251.257370,526.811768 234.723129,528.049988 218.621246,524.171692 
	C217.600525,512.834473 222.888016,503.151367 225.988052,492.689545 
	C221.465836,492.493042 222.883652,497.452484 219.844604,497.709961 
	C220.274887,484.338715 234.373184,474.115997 248.150879,477.150665 
	C260.129608,479.789062 267.921906,489.233276 268.205231,501.825500 
	C268.384949,509.813446 268.211243,517.809326 268.288513,526.234497 
	C268.259247,526.792664 268.137543,526.918152 267.835693,527.234009 
M249.761703,490.438995 
	C237.731476,486.311462 229.602142,491.216187 228.078827,503.615082 
	C227.623322,507.322540 226.040390,510.852234 226.833588,514.708496 
	C225.761826,514.895752 225.116318,515.108093 224.472458,515.103271 
	C222.067581,515.085388 220.615921,516.211182 220.570999,518.621094 
	C220.523544,521.168335 222.011826,522.754211 224.502502,522.873169 
	C227.759262,523.028809 231.295166,523.580811 233.232651,519.797241 
	C233.912552,518.469543 235.146164,517.822144 236.522003,517.963379 
	C242.832214,518.611450 248.407990,515.003967 254.587738,514.946106 
	C255.975098,514.933105 257.082672,514.453186 257.655243,512.927063 
	C260.308472,505.854797 256.941437,495.378845 249.761703,490.438995 
z"/>
<path fill="#000000" opacity="1.000000" stroke="none" 
	d="
M380.324493,290.998718 
	C379.635254,301.969788 373.647736,308.040161 361.840454,310.108185 
	C362.227783,312.352325 363.805573,313.881073 365.080627,315.575104 
	C366.506470,317.469513 367.509491,319.545044 367.901489,321.891266 
	C368.312531,324.351227 367.185272,326.077484 365.173462,327.303833 
	C363.187103,328.514709 361.700867,327.288849 360.242798,326.155762 
	C356.777039,323.462372 354.321838,319.853912 351.772369,316.387909 
	C345.664429,308.084290 339.722931,299.657318 333.778992,291.234467 
	C331.783051,288.406067 333.461487,285.032867 337.199554,285.250183 
	C340.957550,285.468597 342.275085,283.792999 343.867371,280.846405 
	C348.051758,273.103119 357.282288,269.278076 365.541443,271.316101 
	C373.425659,273.261536 379.730652,281.469635 380.324493,290.998718 
M368.911255,291.689484 
	C367.298065,284.281952 361.632538,279.955292 356.132202,281.930298 
	C351.651428,283.539215 348.746063,287.771332 349.379059,291.767426 
	C350.214691,297.042816 355.489716,301.802338 360.316345,301.635864 
	C365.063446,301.472107 368.076630,298.266083 368.911255,291.689484 
z"/>
<path fill="#000000" opacity="1.000000" stroke="none" 
	d="
M706.410034,712.766846 
	C710.393372,719.734863 708.320496,725.727661 704.169189,731.161438 
	C699.833252,736.836914 694.026367,740.648499 687.225220,742.968323 
	C683.803345,744.135559 682.033936,743.226013 681.095398,739.612732 
	C680.310181,736.589783 679.444824,734.396118 683.750549,733.383606 
	C687.979919,732.388977 691.628113,729.906128 694.656555,726.683289 
	C696.379639,724.849548 698.451782,722.964905 696.790100,720.195984 
	C695.015381,717.238708 692.188171,718.005554 689.664612,718.972168 
	C685.951233,720.394470 682.198853,721.815186 678.703064,723.685303 
	C669.863892,728.414124 664.417725,725.156799 660.299011,719.875427 
	C656.060486,714.440308 657.200378,706.574463 662.455322,700.741516 
	C666.746216,695.978699 671.560913,692.003845 677.394653,689.325928 
	C682.306580,687.071167 686.428467,687.654297 688.012573,690.887207 
	C689.433899,693.787842 689.747864,696.217468 685.551392,697.229858 
	C680.662476,698.409485 676.088257,700.466003 672.443970,704.082520 
	C670.323547,706.186768 667.686523,708.535461 669.790283,711.804810 
	C671.935242,715.138184 675.057312,713.575928 677.832947,712.377502 
	C681.497498,710.795227 685.089844,709.038513 688.790100,707.547668 
	C696.315979,704.515259 701.258545,705.949829 706.410034,712.766846 
z"/>
<path fill="#000000" opacity="1.000000" stroke="none" 
	d="
M637.656494,745.342712 
	C638.404785,742.402893 636.876770,741.573547 634.766113,740.749207 
	C628.885559,738.452454 623.098267,735.917480 617.267639,733.492126 
	C616.205750,733.050415 614.991455,732.848938 614.587646,731.525085 
	C619.725952,725.582031 623.955688,724.380127 630.652649,726.972595 
	C632.515808,727.693909 634.319885,728.630859 636.239502,729.126282 
	C638.315613,729.662231 640.586548,732.130432 642.586182,729.651489 
	C644.527222,727.245239 644.210510,724.307129 642.616577,721.670227 
	C640.993042,718.984375 640.278503,716.646729 643.435120,714.363403 
	C648.788330,710.491089 649.278503,710.554871 652.639832,716.406738 
	C659.513672,728.373779 666.443481,740.308777 673.364746,752.248474 
	C675.016724,755.098267 675.269226,757.559875 671.749939,759.206055 
	C668.648193,760.656921 665.601562,763.170410 663.001221,758.311462 
	C659.406372,751.594116 655.564270,745.009033 651.533203,737.843201 
	C646.216980,747.067383 648.400879,760.975708 633.348450,762.853943 
	C633.953369,756.901123 636.199341,751.386719 637.656494,745.342712 
z"/>
<path fill="#000000" opacity="1.000000" stroke="none" 
	d="
M790.140259,531.100281 
	C792.167297,536.479187 794.866943,541.413940 794.277466,547.434998 
	C793.171997,558.726562 783.955627,566.619446 772.697083,565.462646 
	C769.537292,565.138000 767.786011,564.078857 768.510376,560.383423 
	C769.595764,554.845825 770.305176,549.234924 771.197693,543.658875 
	C771.534729,541.553467 772.139709,539.457336 771.161865,537.141113 
	C766.916626,537.460571 764.997681,540.274170 764.394226,543.873230 
	C763.934937,546.613037 763.572266,549.793335 764.521606,552.254944 
	C766.394104,557.109558 762.960083,558.420349 760.096558,559.431824 
	C756.218506,560.801758 756.041809,556.761169 755.257996,554.631165 
	C751.971863,545.701355 755.821960,533.708435 763.411743,528.233948 
	C770.717590,522.964233 779.697510,523.788330 789.481323,530.662354 
	C789.784424,530.726196 790.018066,530.979065 790.140259,531.100281 
M781.519775,552.850220 
	C786.784790,546.915283 785.995300,540.452637 779.286011,538.057007 
	C778.559509,543.335022 777.846680,548.513550 777.152893,553.553955 
	C778.958069,554.476990 779.946594,553.817078 781.519775,552.850220 
z"/>
<path fill="#000000" opacity="1.000000" stroke="none" 
	d="
M259.656769,461.412750 
	C264.836243,457.745453 265.694519,452.671631 264.503601,447.417084 
	C263.668030,443.730347 265.298920,442.313019 267.945862,440.745941 
	C270.199585,439.411652 271.480316,439.855377 272.766602,442.034637 
	C275.983917,447.485474 274.481750,460.570984 269.782684,466.766632 
	C264.906708,473.195404 256.111755,475.711945 247.674957,473.092438 
	C240.265778,470.792023 235.276642,463.898621 234.801758,455.305847 
	C234.163269,443.752869 240.662582,435.243744 251.833603,433.007172 
	C258.523010,431.667877 261.661560,434.601837 260.369659,441.063446 
	C259.163666,447.095520 257.886810,453.113586 256.615814,459.132477 
	C256.093323,461.606720 256.620026,462.820526 259.656769,461.412750 
M243.407288,452.680634 
	C243.664383,456.077515 244.601440,459.014221 248.750046,460.427856 
	C250.319351,455.056549 251.291214,449.904724 251.874466,444.369934 
	C246.278931,444.506592 244.720306,448.014496 243.407288,452.680634 
z"/>
<path fill="#000000" opacity="1.000000" stroke="none" 
	d="
M273.970215,392.259155 
	C264.581848,386.103699 261.724426,376.736877 265.951447,366.922272 
	C270.017120,357.482300 279.345581,352.322144 289.041016,354.934021 
	C296.754608,357.011963 298.140381,359.103149 293.698944,365.436951 
	C289.844849,370.933197 286.568787,376.869934 283.735260,383.195831 
	C290.207031,384.082825 295.096497,379.589905 295.896576,372.711060 
	C296.112549,370.854034 295.515991,368.795959 298.077057,367.673737 
	C303.499725,365.297516 305.355255,366.437073 305.373871,372.366150 
	C305.416321,385.902039 289.043915,401.670746 273.970215,392.259155 
M273.439453,373.484070 
	C273.714111,375.770935 273.999542,378.051697 276.962860,379.300964 
	C279.984467,374.885956 282.581085,370.298981 284.902374,365.370514 
	C278.970337,363.911407 275.799713,366.131866 273.439453,373.484070 
z"/>
<path fill="#000000" opacity="1.000000" stroke="none" 
	d="
M764.035034,582.014771 
	C760.255005,579.453308 755.898499,578.335022 751.527344,577.278137 
	C748.748596,576.606323 747.948486,574.662048 748.973755,572.376465 
	C750.133057,569.791870 749.866394,564.603699 754.261841,565.991272 
	C765.458435,569.525818 777.017456,572.160767 787.830627,577.497986 
	C786.418701,581.515930 786.853821,586.212097 781.504456,587.418274 
	C782.833862,591.573303 782.823547,595.435669 781.352417,599.370117 
	C777.891479,608.626099 770.656067,612.545959 761.152649,609.725708 
	C754.775452,607.833130 748.571228,605.364807 742.234863,603.324097 
	C739.682678,602.502075 739.162415,601.130798 740.129333,598.819336 
	C740.706482,597.439758 741.332336,596.049805 741.656433,594.601868 
	C742.228394,592.046448 743.585327,591.371216 746.013245,592.194458 
	C751.207336,593.955627 756.398010,595.741028 761.654114,597.300842 
	C767.909424,599.157227 771.835938,597.232727 773.004150,592.007568 
	C774.110535,587.058960 771.455627,583.882874 764.265991,581.940308 
	C763.975525,581.978882 764.014404,582.004089 764.035034,582.014771 
z"/>
<path fill="#000000" opacity="1.000000" stroke="none" 
	d="
M710.790771,669.850586 
	C708.214111,671.538330 705.682007,671.929626 703.562378,670.186523 
	C701.206604,668.249268 702.305542,665.665894 703.062134,663.254395 
	C706.312683,652.893188 714.771729,645.833618 724.125916,645.615295 
	C731.861450,645.434753 737.487183,648.988037 741.437927,655.375488 
	C745.760864,662.364624 745.001953,669.482300 740.886536,676.131409 
	C734.594666,686.296814 723.625671,689.064209 713.718079,683.409058 
	C709.086792,680.765503 708.836121,679.578491 712.028564,675.374512 
	C716.521423,669.457947 721.016296,663.542908 725.619507,657.483459 
	C718.362671,654.963440 713.509766,659.208130 710.790771,669.850586 
M724.190552,671.490845 
	C723.523621,672.718567 721.835876,673.489441 722.490784,675.414368 
	C727.444763,677.041077 730.874207,674.789612 733.206665,670.733337 
	C734.957947,667.687805 735.038330,664.512207 731.535828,661.664490 
	C729.097595,664.895020 726.825867,667.904968 724.190552,671.490845 
z"/>
<path fill="#000000" opacity="1.000000" stroke="none" 
	d="
M415.347260,280.223206 
	C409.667358,285.881744 403.194794,289.133209 395.475281,288.673401 
	C386.451508,288.135895 379.882874,282.292999 377.337006,273.327698 
	C375.411469,266.546875 378.998535,258.100922 385.970093,253.000854 
	C395.882935,245.749023 408.591980,248.048965 414.501495,258.159363 
	C416.447388,261.488556 416.956360,263.940735 412.238129,265.720612 
	C406.510376,267.881317 401.112823,270.923340 395.596008,273.632080 
	C394.443085,274.198151 393.171417,274.734619 392.698181,276.094208 
	C397.018860,280.456848 403.084076,279.722748 408.236023,274.299744 
	C409.681854,272.777802 410.635559,270.684265 413.422058,271.194672 
	C418.322815,272.092377 419.077850,274.973206 415.347260,280.223206 
M397.552307,265.160339 
	C399.490082,264.049164 401.977081,263.718628 403.186401,261.178101 
	C400.657715,257.915436 397.291534,257.553925 393.891052,258.923004 
	C389.971863,260.500885 387.755585,263.554474 387.881165,268.239655 
	C391.555786,268.755463 393.845917,265.861328 397.552307,265.160339 
z"/>
<path fill="#000000" opacity="1.000000" stroke="none" 
	d="
M336.144897,305.711731 
	C345.563568,314.466644 346.774658,324.803680 339.703400,333.895477 
	C332.350739,343.349060 321.035065,346.039612 312.001068,340.482330 
	C302.707550,334.765381 299.929291,322.005219 306.201263,313.029053 
	C312.548065,303.945831 323.995697,297.504974 336.144897,305.711731 
M313.650665,323.845367 
	C314.346283,325.725677 315.186859,327.519196 316.588531,329.001617 
	C320.824188,333.481201 326.108185,333.939148 330.230408,330.172302 
	C334.733490,326.057434 334.755768,321.002350 330.211700,316.241608 
	C327.319641,313.211639 323.711731,312.113068 319.755524,313.434357 
	C315.240570,314.942169 313.511108,318.564941 313.650665,323.845367 
z"/>
<path fill="#000000" opacity="1.000000" stroke="none" 
	d="
M452.011963,796.013489 
	C452.804962,786.692688 454.085419,785.721130 463.231659,787.469360 
	C466.989319,788.187683 470.762939,788.825195 474.512482,789.582703 
	C477.744934,790.235840 479.459595,789.376709 479.848206,785.726379 
	C480.765594,777.108887 480.903198,777.133179 471.873505,775.878601 
	C468.908203,775.466614 465.964294,774.767639 462.988007,774.598816 
	C458.678772,774.354248 458.437805,771.807800 458.811615,768.441589 
	C459.246216,764.528259 461.788208,764.633484 464.624695,765.034607 
	C469.067963,765.663025 473.585205,765.976868 477.933319,767.005981 
	C481.642120,767.883789 482.818085,766.161621 483.261078,763.150574 
	C483.623199,760.689331 483.678680,758.183594 484.026001,755.719543 
	C484.430878,752.846924 485.602936,750.202576 489.043091,750.897888 
	C492.268372,751.549805 495.760437,752.871521 495.414093,757.143982 
	C494.985046,762.437561 494.093262,767.694885 493.359833,772.962097 
	C492.351257,780.204956 491.270874,787.437988 490.285980,794.683960 
	C489.732605,798.754883 487.884125,800.069580 483.505646,799.678162 
	C473.245789,798.760864 463.210419,796.095703 452.423035,795.966919 
	C451.974365,795.976624 451.999695,796.000916 452.011963,796.013489 
z"/>
<path fill="#000000" opacity="1.000000" stroke="none" 
	d="
M533.545105,752.371338 
	C540.871948,748.791321 548.111511,747.961121 555.697693,749.861328 
	C558.976624,750.682556 559.972412,752.630981 559.427246,755.753296 
	C558.835083,759.144470 556.842651,759.357056 553.910950,758.685120 
	C549.668091,757.712708 545.326050,757.683533 541.082520,758.910522 
	C539.779602,759.287231 538.435608,760.010132 538.635803,761.620300 
	C538.832275,763.200195 540.265320,763.593140 541.639221,763.726929 
	C545.434631,764.096680 549.263184,763.618774 553.055176,764.593384 
	C557.747559,765.799500 561.465088,767.822815 562.224060,773.112244 
	C563.018433,778.648315 560.674683,783.294861 555.508911,785.824768 
	C549.463928,788.785217 543.120361,789.325012 536.735596,787.023499 
	C534.832886,786.337646 532.230835,785.602173 533.339722,782.539429 
	C534.242676,780.045715 535.480957,777.995605 538.841675,779.355835 
	C541.365295,780.377197 544.131592,780.271667 546.727600,779.718506 
	C548.728027,779.292175 551.545532,778.852661 551.315125,776.087524 
	C551.113525,773.667725 548.483154,773.616699 546.550903,773.393494 
	C543.581238,773.050476 540.554321,773.128235 537.608887,772.664368 
	C529.784241,771.432434 526.733643,767.048767 527.850525,759.384155 
	C528.349060,755.963379 530.842590,754.376526 533.545105,752.371338 
z"/>
<path fill="#000000" opacity="1.000000" stroke="none" 
	d="
M264.753052,632.885376 
	C256.532104,627.498291 250.911407,620.735901 250.958054,610.518433 
	C250.963333,609.362000 250.862701,608.083069 251.302444,607.075378 
	C252.283920,604.826294 252.137573,601.325989 255.823334,601.492126 
	C258.866760,601.629211 261.904572,606.143311 261.311432,609.421021 
	C260.495789,613.928650 261.392120,617.785034 265.375031,620.352844 
	C268.996826,622.687866 272.768829,622.012878 276.219147,619.887024 
	C279.804596,617.677917 281.348083,614.318726 280.729156,610.088318 
	C280.226227,606.650818 278.296143,604.326172 275.041809,603.147888 
	C269.552917,601.160645 272.104279,596.897034 273.010010,593.898315 
	C274.100494,590.287842 277.268250,592.478638 279.294922,593.325500 
	C288.070831,596.992798 292.702698,608.277527 290.354340,619.700623 
	C288.806335,627.230591 280.155273,633.342346 271.106018,633.283875 
	C269.443146,633.273132 267.780701,633.205444 265.683472,633.214111 
	C265.248932,633.264099 264.922485,633.006165 264.753052,632.885376 
z"/>
<path fill="#000000" opacity="1.000000" stroke="none" 
	d="
M730.677979,618.755249 
	C740.583496,608.687439 751.629395,608.376038 760.672913,617.637207 
	C770.044312,627.234375 764.798096,647.799316 751.930176,651.731506 
	C749.934753,652.341370 747.063293,653.405212 746.222473,650.841614 
	C745.311340,648.063538 744.396179,644.566711 747.547363,642.139771 
	C748.320190,641.544617 749.368103,641.321594 750.236023,640.832458 
	C754.655273,638.341064 756.583862,633.589905 754.888306,629.456604 
	C753.137939,625.189941 746.829712,621.661011 742.662292,622.617188 
	C738.283020,623.622009 734.948853,628.484558 735.362732,633.214355 
	C735.525513,635.075073 737.047546,637.075378 734.823364,638.718262 
	C732.846375,640.178650 730.981995,642.735901 728.453003,642.027039 
	C725.790222,641.280640 725.542908,638.154846 725.259155,635.708069 
	C724.531006,629.428040 726.516724,623.909119 730.677979,618.755249 
z"/>
<path fill="#000000" opacity="1.000000" stroke="none" 
	d="
M245.065887,416.611267 
	C253.669098,415.855408 261.911743,415.304230 270.187317,414.750824 
	C265.471313,409.815491 261.013641,404.973358 256.359894,400.327667 
	C251.187057,395.163818 251.059845,393.869934 256.108948,387.333405 
	C260.667419,388.471527 263.224213,392.457428 266.449036,395.347961 
	C272.138947,400.448029 277.320007,406.111481 282.908020,411.331512 
	C285.346405,413.609253 285.883423,415.741394 284.501495,418.792419 
	C283.162689,421.748230 282.996277,425.123413 278.405853,425.500793 
	C269.266663,426.252106 260.178558,427.050323 251.120300,424.965027 
	C249.799728,424.661011 248.537292,424.462463 247.209290,424.968018 
	C245.755722,425.521362 244.253952,427.175781 242.705765,425.473602 
	C241.235855,423.857513 242.208191,421.964233 242.815384,420.283386 
	C243.257431,419.059692 244.062225,417.966980 245.065887,416.611267 
z"/>
<path fill="#000000" opacity="1.000000" stroke="none" 
	d="
M304.146484,356.909790 
	C294.478027,349.566010 285.094299,342.439423 275.720184,335.300232 
	C273.907684,333.919861 271.231537,332.605072 274.052551,329.962891 
	C276.273499,327.882751 276.693054,321.843811 282.005371,325.772919 
	C294.019379,334.658905 305.992126,343.601288 317.929871,352.589539 
	C321.462738,355.249451 318.767883,357.543884 317.159454,359.729218 
	C315.604279,361.842224 314.147034,364.484467 310.866943,361.830261 
	C308.803894,360.160828 306.584045,358.685150 304.146484,356.909790 
z"/>
<path fill="#000000" opacity="1.000000" stroke="none" 
	d="
M571.364868,777.604492 
	C569.127808,768.821106 567.028137,760.433289 564.876038,752.058960 
	C564.009521,748.687317 563.789917,745.887085 568.303589,744.962341 
	C572.451172,744.112610 575.378296,744.470459 576.393188,749.417297 
	C578.197144,758.210510 580.322815,766.937500 582.289612,775.697632 
	C583.345276,780.400085 584.366516,785.110352 585.372375,789.823730 
	C586.052917,793.012817 585.383972,795.393005 581.727722,796.213257 
	C578.312439,796.979431 576.413513,795.837097 575.465820,792.397827 
	C574.143738,787.599548 571.869385,783.066711 571.364868,777.604492 
z"/>
<path fill="#000000" opacity="1.000000" stroke="none" 
	d="
M440.675110,240.821167 
	C440.610413,241.344742 440.595917,241.592499 440.488556,241.643051 
	C429.343353,246.890060 432.291840,255.439346 435.240692,263.989655 
	C435.294861,264.146637 435.343903,264.305359 435.399384,264.461823 
	C438.771362,273.968445 438.771362,273.968445 428.155548,276.070648 
	C423.878754,265.744904 420.327148,255.081940 417.189941,244.273071 
	C416.615448,242.293579 417.236359,240.616302 419.113007,239.631943 
	C421.808258,238.218201 424.555939,236.785065 427.296478,239.990784 
	C428.496124,238.927917 429.584442,237.956680 430.680237,236.993942 
	C437.089783,231.362595 438.893585,231.987045 440.675110,240.821167 
z"/>
<path fill="#000000" opacity="1.000000" stroke="none" 
	d="
M585.291687,750.664795 
	C584.848083,749.518555 584.435547,748.771240 584.246765,747.971069 
	C583.772827,745.962646 581.977783,743.454651 584.152100,742.014343 
	C586.542542,740.430786 589.579102,739.675598 592.439270,739.013123 
	C593.770386,738.704834 593.949585,740.445801 594.298828,741.542114 
	C597.625366,751.984436 600.974792,762.419556 604.306702,772.860229 
	C605.216492,775.710938 606.028137,778.594299 606.995239,781.425049 
	C608.217773,785.003418 606.605896,786.660217 602.519348,787.731384 
	C604.405518,783.663940 604.804077,780.332458 600.462463,778.591492 
	C598.037842,779.843933 599.757263,783.032593 596.603638,784.591919 
	C592.032104,773.628845 588.981262,762.242188 585.291687,750.664795 
z"/>
<path fill="#000000" opacity="1.000000" stroke="none" 
	d="
M796.045776,514.634094 
	C795.206787,517.511719 793.585938,519.109619 790.970276,519.143738 
	C781.854370,519.262695 772.714783,519.612427 763.640686,518.559692 
	C758.515503,517.964966 756.813843,515.241089 758.020691,510.711884 
	C758.697266,508.172729 760.156067,506.688232 762.960144,506.772308 
	C772.563843,507.060272 782.184265,506.711578 791.766174,507.844940 
	C795.917603,508.335999 796.349426,510.949860 796.045776,514.634094 
z"/>
<path fill="#000000" opacity="1.000000" stroke="none" 
	d="
M609.050537,755.837036 
	C606.824036,750.401428 604.857971,745.271118 602.646118,740.249146 
	C600.510986,735.401550 603.847595,734.322021 607.170898,732.703491 
	C610.827942,730.922424 612.144409,732.548462 613.375183,735.687866 
	C616.837341,744.519165 620.425659,753.303772 624.137878,762.032837 
	C625.549194,765.351501 624.945190,767.251465 621.424072,768.484985 
	C618.329773,769.569092 615.434570,771.226074 613.647217,766.759888 
	C612.227356,763.211914 610.689026,759.711304 609.050537,755.837036 
z"/>
<path fill="#000000" opacity="1.000000" stroke="none" 
	d="
M229.760437,466.724121 
	C226.810196,456.920624 228.593796,447.817047 230.573654,437.814514 
	C233.833755,439.926788 233.655670,441.730560 233.481796,443.797089 
	C233.120193,448.095093 233.178177,452.426788 232.887207,456.732727 
	C232.520325,462.162231 234.282578,466.480713 238.308029,470.291382 
	C241.716599,473.517975 237.522537,475.707123 235.843552,475.901642 
	C224.832977,477.177338 219.705536,484.556854 216.152206,494.203186 
	C211.905945,492.025177 212.780899,488.973297 214.485474,486.332184 
	C217.921570,481.008087 222.255768,476.388428 227.464813,472.749237 
	C229.630569,471.236206 231.068436,469.828888 229.760437,466.724121 
z"/>
<path fill="#000000" opacity="1.000000" stroke="none" 
	d="
M254.731995,596.370972 
	C255.361237,594.980896 256.397858,594.929993 257.380219,594.861877 
	C260.953033,594.614258 264.679260,595.182556 267.567291,592.086060 
	C268.246094,591.358215 269.757172,591.467407 270.780792,592.274353 
	C271.439331,593.341858 270.896545,594.136719 270.327118,594.995728 
	C266.951843,600.087646 267.303711,601.868835 272.674164,604.203430 
	C278.372009,606.680481 277.215881,611.584045 277.327057,616.162415 
	C276.717926,617.620239 275.055908,617.174622 273.975891,617.885620 
	C269.623566,620.751221 263.926208,618.574463 264.803253,613.787476 
	C266.521271,604.410278 260.899597,600.622559 254.731995,596.370972 
z"/>
<path fill="#000000" opacity="1.000000" stroke="none" 
	d="
M317.957855,369.104614 
	C311.183258,371.721069 311.183258,371.721069 307.917175,380.985809 
	C307.075867,378.910095 306.333252,368.353027 306.920197,366.751831 
	C307.969666,363.888824 310.482147,364.785156 312.467957,364.783478 
	C315.765137,364.780762 318.479523,364.560760 320.368896,361.032837 
	C323.747223,354.724701 323.920776,354.123444 319.039551,349.038544 
	C318.481415,348.457153 317.692047,348.097748 316.124420,347.035156 
	C322.221436,344.529785 327.661835,347.185181 333.208588,343.943024 
	C331.187134,355.218689 323.392212,361.251373 317.957855,369.104614 
z"/>
<path fill="#000000" opacity="1.000000" stroke="none" 
	d="
M177.896729,480.396790 
	C178.360580,487.318695 174.610977,492.170135 171.109863,496.971649 
	C168.965454,499.912598 166.013931,499.173187 164.618225,495.790619 
	C162.384460,490.376953 164.176041,482.068115 168.419952,478.159241 
	C172.120087,474.751221 175.289688,475.368896 177.896729,480.396790 
z"/>
<path fill="#000000" opacity="1.000000" stroke="none" 
	d="
M742.408203,644.842163 
	C741.938538,648.522156 741.474609,651.623108 737.776855,647.042297 
	C736.801147,645.833557 734.399841,646.342346 733.963623,643.495544 
	C739.378967,640.897217 738.860352,635.583374 738.691345,630.458008 
	C738.589172,627.358337 740.870117,625.743469 742.943970,626.139954 
	C745.909302,626.706909 750.207458,624.808167 751.634338,629.648804 
	C752.713806,633.310608 751.031067,637.330933 747.017456,639.242310 
	C744.639160,640.374878 742.994446,641.891174 742.408203,644.842163 
z"/>
<path fill="#000000" opacity="1.000000" stroke="none" 
	d="
M601.105286,747.902039 
	C602.519897,748.053406 604.026733,748.574646 604.059631,750.067932 
	C604.214050,757.060791 610.210083,761.968079 610.594360,768.900818 
	C610.695496,770.725098 612.585205,772.027649 614.071106,772.964111 
	C617.451050,775.094299 618.144592,777.137878 613.574280,779.858093 
	C618.728882,780.939026 615.409180,786.534912 620.463074,787.632446 
	C616.864868,788.867065 614.243042,788.862427 611.597595,788.883972 
	C611.311523,788.356812 610.865845,787.923767 610.883179,787.510132 
	C611.243835,778.907532 606.681519,771.604004 604.657959,763.636597 
	C603.405823,758.706604 600.965271,754.085388 600.910400,748.425903 
	C601.013794,747.978699 601.105286,747.902039 601.105286,747.902039 
z"/>
<path fill="#000000" opacity="1.000000" stroke="none" 
	d="
M582.004883,754.995117 
	C584.215576,755.767334 584.600037,757.543091 585.514832,759.565613 
	C587.773010,764.558777 588.531250,769.989441 590.328125,775.075073 
	C592.021057,779.866577 595.055847,784.970154 593.689087,790.587036 
	C590.840454,788.807678 591.767456,794.316406 590.268433,793.527832 
	C587.992432,792.670837 587.825195,791.629578 587.835754,790.648438 
	C587.936951,781.255981 585.227112,772.516296 582.076538,763.798279 
	C581.225891,761.444275 581.898254,758.539978 581.935791,755.444092 
	C582.000000,755.000000 582.004883,754.995117 582.004883,754.995117 
z"/>
<path fill="#000000" opacity="1.000000" stroke="none" 
	d="
M812.827637,510.359650 
	C814.565735,515.405823 812.819458,519.661133 808.934998,520.704407 
	C805.487915,521.630127 802.582520,519.313538 801.490906,515.200134 
	C800.397156,511.078522 803.495667,509.446381 805.904846,507.731842 
	C808.791870,505.677185 810.757629,508.101868 812.827637,510.359650 
z"/>
<path fill="#000000" opacity="1.000000" stroke="none" 
	d="
M619.703369,783.393066 
	C617.336670,779.475342 617.834778,776.476746 621.528381,774.207947 
	C624.013245,772.681580 626.461548,772.577393 629.015564,774.114502 
	C632.220093,776.043152 629.665405,778.581421 629.783325,780.816101 
	C629.934387,783.679016 627.611572,784.286743 625.520325,784.782715 
	C623.573547,785.244507 621.549316,785.361267 619.703369,783.393066 
z"/>
<path fill="#000000" opacity="1.000000" stroke="none" 
	d="
M347.362091,323.538391 
	C347.807373,322.135559 348.103210,321.058868 348.476868,319.699127 
	C351.461945,320.887146 354.032806,322.800354 353.838074,325.561310 
	C353.578644,329.240479 349.316010,327.635101 347.315094,329.364319 
	C345.263336,327.304657 346.157257,325.583740 347.362091,323.538391 
z"/>
<path fill="#000000" opacity="1.000000" stroke="none" 
	d="
M569.729736,784.241943 
	C568.395020,786.580200 566.291016,785.190552 564.578491,785.346558 
	C563.006775,785.489746 562.465637,782.848083 563.324951,782.518005 
	C566.866577,781.157959 565.445068,777.745667 566.959595,774.615234 
	C568.004578,778.253906 568.823486,781.105347 569.729736,784.241943 
z"/>
<path fill="#000000" opacity="1.000000" stroke="none" 
	d="
M368.893341,312.172974 
	C370.361938,310.880280 371.535614,309.673431 373.620728,310.887909 
	C373.681213,313.093445 373.237793,315.080414 370.877899,315.888672 
	C369.706055,316.290009 368.169952,316.514648 367.384674,315.054413 
	C366.690247,313.763092 367.450012,312.905823 368.893341,312.172974 
z"/>
<path fill="#000000" opacity="1.000000" stroke="none" 
	d="
M560.336182,764.127686 
	C559.174438,763.273071 558.333435,762.526367 557.305786,761.613953 
	C560.967102,759.631653 563.311890,760.736755 565.216370,763.807800 
	C566.097778,765.229126 566.728516,766.679382 565.073608,767.618347 
	C563.322998,768.611572 562.918640,766.949585 562.516907,765.667236 
	C562.235535,764.769043 561.474792,764.456421 560.336182,764.127686 
z"/>
<path fill="#000000" opacity="1.000000" stroke="none" 
	d="
M581.998413,755.001282 
	C578.521362,753.612305 578.407227,750.771118 578.822571,747.687012 
	C578.963806,746.638611 579.248596,745.734863 580.539978,745.772522 
	C581.797791,745.809265 582.207458,746.692139 582.204651,747.752014 
	C582.199036,749.875732 582.100830,751.999207 582.022827,754.558960 
	C582.004883,754.995117 582.000000,755.000000 581.998413,755.001282 
z"/>
<path fill="#000000" opacity="1.000000" stroke="none" 
	d="
M303.298462,359.666199 
	C304.542206,364.159637 304.542206,364.159637 300.154999,363.891632 
	C299.128387,362.259949 299.820435,360.443085 299.674316,358.657227 
	C301.134308,357.534119 302.323273,357.539948 303.298462,359.666199 
z"/>
<path fill="#000000" opacity="1.000000" stroke="none" 
	d="
M216.257629,516.627014 
	C216.085754,510.713135 216.085754,505.009186 216.085754,499.305206 
	C216.418808,505.153992 217.958633,511.005768 216.257629,516.627014 
z"/>
<path fill="#000000" opacity="1.000000" stroke="none" 
	d="
M598.072388,738.946777 
	C602.128906,740.567444 601.103271,744.004822 601.068848,747.504883 
	C601.105286,747.902039 601.013794,747.978699 600.966309,748.016785 
	C597.341736,746.321167 597.668640,743.094788 597.825195,739.538391 
	C597.835388,739.139404 597.993408,739.011047 598.072388,738.946777 
z"/>
<path fill="#000000" opacity="1.000000" stroke="none" 
	d="
M585.147400,247.226013 
	C588.036194,239.199509 590.917786,231.578552 593.437683,223.839844 
	C594.857727,219.478775 597.416565,220.478119 600.440247,221.547470 
	C603.510498,222.633270 606.154419,223.622147 604.462341,227.824326 
	C602.980347,231.504959 601.855652,235.329483 600.381165,239.653046 
	C602.836548,239.653046 604.897461,239.621826 606.957153,239.658234 
	C618.276978,239.858353 625.445007,249.287506 622.263306,260.036469 
	C620.424805,266.247803 618.141907,272.326233 616.168518,278.499481 
	C614.815369,282.732300 612.290833,282.506287 608.824341,281.084595 
	C605.631104,279.774994 602.912292,278.874054 604.778992,274.447754 
	C606.775574,269.713684 608.418884,264.822327 610.044800,259.942444 
	C611.867676,254.471298 610.627686,250.992523 606.563049,249.485596 
	C601.450012,247.589966 596.782715,249.635132 594.829163,254.824142 
	C593.074768,259.484100 591.509644,264.216125 589.904480,268.931122 
	C588.006104,274.507202 584.225403,271.779327 580.906921,270.988342 
	C577.179199,270.099792 577.464294,267.782593 578.596497,264.889252 
	C580.837158,259.163269 582.870056,253.355988 585.147400,247.226013 
z"/>
<path fill="#000000" opacity="1.000000" stroke="none" 
	d="
M574.680420,261.047852 
	C575.608582,267.913910 574.922119,268.647430 568.385437,268.307373 
	C558.236511,267.779388 553.019409,260.952301 555.073730,251.048248 
	C556.042175,246.379257 556.780334,241.662521 557.643616,236.851349 
	C555.575806,236.158249 554.022034,235.637421 552.243286,235.041214 
	C551.970337,232.091812 552.957520,229.544907 554.292053,226.852173 
	C555.819824,227.026291 557.239868,227.188126 558.393250,227.319565 
	C559.930420,226.231049 559.821411,224.748413 560.262939,223.533234 
	C561.211609,220.922302 562.060791,218.226181 565.759338,219.422272 
	C568.924744,220.445923 573.108887,220.500092 571.503357,225.967056 
	C570.578979,229.114487 572.395752,230.654037 575.496399,230.729416 
	C578.386597,230.799667 580.018188,231.889908 579.136536,235.058578 
	C578.410217,237.668793 578.450317,241.203918 573.992310,239.698151 
	C569.940735,238.329712 568.136230,240.108994 567.650757,244.045227 
	C567.325439,246.681992 566.660339,249.275757 566.303040,251.909882 
	C565.552673,257.441284 566.470337,258.619415 572.053589,259.333984 
	C573.125610,259.471161 573.990906,259.696381 574.680420,261.047852 
z"/>
<path fill="#000000" opacity="1.000000" stroke="none" 
	d="
M538.375793,224.588837 
	C540.256348,224.628616 541.742432,224.767914 543.231750,224.839325 
	C546.151001,224.979340 547.379822,226.419922 547.026978,229.367172 
	C546.002625,237.922928 545.095642,246.492889 544.044556,255.045227 
	C543.626526,258.446106 541.931335,261.520966 538.274536,261.313141 
	C534.132690,261.077820 532.548828,258.048950 533.027161,253.852966 
	C533.966064,245.617249 534.704529,237.358826 535.566772,229.114059 
	C535.753296,227.330093 535.720398,225.350494 538.375793,224.588837 
z"/>
<path fill="#000000" opacity="1.000000" stroke="none" 
	d="
M548.784363,210.124893 
	C550.463928,215.694916 548.794861,219.068344 544.215149,219.905396 
	C541.352356,220.428635 538.951599,219.391434 537.190186,217.133698 
	C535.770691,215.314102 535.341980,213.263336 536.521912,211.085083 
	C537.982239,208.389130 540.450195,207.751114 543.249390,207.679352 
	C545.344421,207.625626 547.208557,208.046661 548.784363,210.124893 
z"/>
<path fill="#000000" opacity="1.000000" stroke="none" 
	d="
M392.246948,719.745483 
	C395.797699,721.275330 396.097900,723.496033 394.494202,726.333740 
	C387.214844,739.214661 379.962036,752.110596 372.666809,764.982483 
	C371.253265,767.476562 369.114319,768.226562 366.913574,766.215027 
	C364.811768,764.293701 359.802246,763.857971 362.644287,758.943970 
	C370.119049,746.019531 377.652496,733.127869 384.991516,720.126648 
	C387.252594,716.121094 389.509949,718.240845 392.246948,719.745483 
z"/>
<path fill="#000000" opacity="1.000000" stroke="none" 
	d="
M680.119263,289.875305 
	C678.967712,294.855103 674.654236,296.580170 671.677185,299.428009 
	C669.108704,301.884979 666.716003,298.776917 664.841187,297.788635 
	C662.611755,296.613403 660.724976,294.770203 658.099670,293.994446 
	C655.691162,293.282684 654.976868,290.393585 656.237061,289.171814 
	C661.424377,284.142731 663.264343,276.520020 669.722107,272.080383 
	C675.833862,276.392090 682.011658,280.447968 680.119263,289.875305 
z"/>
<path fill="#000000" opacity="1.000000" stroke="none" 
	d="
M252.914230,497.566193 
	C255.012589,500.106262 256.176208,508.918213 254.846909,510.991608 
	C253.859436,512.531921 252.242722,512.258301 250.797440,512.272583 
	C244.013046,512.339539 237.213593,512.639648 230.095978,511.051544 
	C229.949005,506.357330 228.245850,501.477753 232.566391,496.950653 
	C236.625717,492.697266 246.345596,490.967285 251.180328,494.278900 
	C252.360962,495.087585 252.129196,496.310089 252.914230,497.566193 
z"/>
<path fill="#000000" opacity="1.000000" stroke="none" 
	d="
M361.602997,298.695435 
	C360.216766,300.428955 359.202545,300.062653 358.168152,298.771423 
	C357.031647,297.352753 355.966217,295.821655 354.599792,294.656067 
	C352.707672,293.042114 350.819550,291.137787 352.319672,288.831329 
	C353.930756,286.354370 356.514618,284.682495 359.904510,284.788391 
	C362.432800,284.867401 363.101654,286.402496 364.528198,288.197998 
	C368.623596,293.352600 363.995789,295.395691 361.602997,298.695435 
z"/>
<path fill="#000000" opacity="1.000000" stroke="none" 
	d="
M245.755554,450.989044 
	C246.202377,448.663422 247.334000,447.041809 248.642700,449.588806 
	C249.666595,451.581543 250.694824,454.843109 246.526001,455.653748 
	C245.466324,454.262451 245.883896,452.762634 245.755554,450.989044 
z"/>
<path fill="#000000" opacity="1.000000" stroke="none" 
	d="
M319.117828,326.899750 
	C315.474304,325.903168 315.267090,323.293030 315.891418,320.833038 
	C316.546021,318.253723 318.672668,316.572327 321.287445,316.030640 
	C327.678162,314.706635 331.633911,319.006439 330.036438,325.434357 
	C329.760590,326.544128 329.248108,327.595093 328.734650,328.968079 
	C325.580231,328.922119 322.069397,330.729614 319.117828,326.899750 
z"/>
</svg>