<svg version="1.1" id="Layer_1" xmlns="http://www.w3.org/2000/svg" xmlns:xlink="http://www.w3.org/1999/xlink" x="0px" y="0px"
	 width="100%" viewBox="0 0 496 496" enable-background="new 0 0 496 496" xml:space="preserve">
<path fill="#000000" opacity="1.000000" stroke="none" 
	d="
M710.997314,137.949646 
	C717.624817,142.744919 724.171814,147.074738 730.233215,152.001968 
	C740.839966,160.624069 747.080444,171.516327 744.224915,185.620163 
	C741.514832,199.005692 733.542786,208.365158 720.341248,212.649902 
	C710.294617,215.910706 700.714661,213.677475 692.114624,208.320236 
	C682.946533,202.609146 674.355713,195.976395 665.436035,189.858124 
	C662.841431,188.078400 663.019348,186.445236 664.680786,184.110733 
	C676.164734,167.974258 687.602051,151.804184 698.952332,135.573502 
	C700.980225,132.673553 702.865784,131.798492 705.765442,134.364578 
	C707.248108,135.676682 709.043884,136.634995 710.997314,137.949646 
M709.313782,198.658981 
	C718.452698,197.739273 724.140442,192.273315 727.366516,184.199951 
	C730.314087,176.823471 728.263489,170.184052 722.996216,164.441223 
	C719.696289,160.843338 715.300110,158.644455 711.615540,155.552917 
	C708.581299,153.007019 706.548645,153.549255 704.404663,156.709152 
	C699.456726,164.001648 694.293213,171.147720 689.230652,178.362686 
	C687.541443,180.770004 685.470520,182.962296 684.481750,186.180069 
	C692.096863,191.367004 698.609131,198.159515 709.313782,198.658981 
z"/>
<path fill="#000000" opacity="1.000000" stroke="none" 
	d="
M140.801422,440.871704 
	C154.943146,447.586060 160.320770,459.414856 160.930054,473.765137 
	C161.331619,483.223022 160.743912,492.720825 160.687897,502.201233 
	C160.666092,505.889740 159.264816,507.456696 155.310242,507.396759 
	C136.012253,507.104309 116.710472,507.066986 97.410316,506.905823 
	C94.879242,506.884674 91.799316,506.877686 92.132698,503.270599 
	C93.250862,491.172577 91.175346,478.893646 93.522621,466.946320 
	C98.194038,443.169342 117.395844,432.658478 140.801422,440.871704 
M138.923309,458.473450 
	C123.007950,449.114349 106.612381,458.111450 106.293594,476.384705 
	C106.244354,479.207397 106.383698,482.041290 106.179939,484.851410 
	C105.923882,488.382782 107.134567,489.976746 110.918571,489.990417 
	C119.048592,490.019775 127.175911,490.517944 135.306915,490.621185 
	C146.852020,490.767792 146.724396,490.686646 146.997833,479.063202 
	C147.181152,471.269836 146.033325,464.137848 138.923309,458.473450 
z"/>
<path fill="#000000" opacity="1.000000" stroke="none" 
	d="
M486.239624,143.250458 
	C481.979950,134.010513 478.008270,125.073700 473.782593,115.565369 
	C471.407776,118.122574 471.148346,120.814308 470.377747,123.201355 
	C468.384003,129.377213 466.477081,135.585724 464.742157,141.838547 
	C463.897583,144.882401 462.197815,146.080811 459.067627,146.283051 
	C448.544312,146.962967 448.547882,147.057053 444.251221,137.171951 
	C439.141205,125.415558 434.020111,113.663918 428.945526,101.892242 
	C428.172302,100.098610 427.079803,98.357872 427.344299,95.992111 
	C431.210388,94.148872 435.392761,94.745209 439.463928,94.865913 
	C441.907288,94.938354 442.416382,97.319107 443.176819,99.093857 
	C446.974030,107.956436 450.690582,116.853584 454.451080,125.775490 
	C456.366974,125.350998 456.280548,123.812218 456.624420,122.684479 
	C459.050354,114.728188 461.604706,106.802498 463.708313,98.759880 
	C464.844849,94.414749 466.734619,91.870560 471.579346,92.628990 
	C472.384613,92.755051 473.293823,92.745186 474.060425,92.501060 
	C477.845032,91.295815 479.480591,93.329292 480.774933,96.481636 
	C484.499023,105.551552 488.378906,114.557495 492.521698,124.355064 
	C495.165253,119.640106 495.836700,115.095688 497.240051,110.848198 
	C498.961426,105.638199 500.283264,100.297325 501.839722,95.031311 
	C502.976959,91.183784 512.346130,87.941528 515.681885,90.186066 
	C517.162537,91.182365 516.633484,92.569389 516.273438,93.793808 
	C511.720612,109.277321 507.111084,124.744156 502.554626,140.226608 
	C501.980286,142.178162 500.973724,143.536575 498.833710,143.665466 
	C494.730927,143.912582 490.614838,145.110733 486.239624,143.250458 
z"/>
<path fill="#000000" opacity="1.000000" stroke="none" 
	d="
M298.870392,225.200729 
	C301.648499,228.253189 300.936951,230.146408 297.931488,232.251022 
	C288.882629,238.587601 288.947876,238.702805 282.475250,229.774841 
	C271.733276,214.957993 261.126984,200.040298 250.189957,185.369034 
	C247.348221,181.557022 247.754974,179.157288 251.723724,177.167938 
	C255.070267,175.490540 257.378693,170.302734 262.267181,174.018143 
	C269.438873,160.524704 280.903625,154.289429 293.065460,157.131714 
	C304.549622,159.815628 314.436035,172.280350 314.854675,184.603424 
	C315.270966,196.858627 306.969971,205.738617 289.507629,211.383270 
	C291.876801,216.418655 295.762787,220.348465 298.870392,225.200729 
M272.288391,184.471725 
	C273.232056,191.702805 278.467224,197.930466 284.264709,198.718536 
	C291.152374,199.654816 297.886841,195.006470 298.750824,188.719772 
	C299.804565,181.052338 294.199402,173.265656 286.836884,172.169022 
	C279.271179,171.042099 273.631012,175.503815 272.288391,184.471725 
z"/>
<path fill="#000000" opacity="1.000000" stroke="none" 
	d="
M234.915588,787.206787 
	C227.158401,781.964905 221.317627,775.496826 217.063858,767.536255 
	C215.191940,764.033203 215.518799,761.584473 219.456818,760.064758 
	C220.694641,759.587097 221.904800,758.982361 223.030228,758.279785 
	C225.934067,756.467041 227.790512,756.950745 229.140518,760.310486 
	C231.089478,765.160950 234.158661,769.309204 238.137421,772.751099 
	C240.046707,774.402649 242.095673,775.900330 244.541061,776.527466 
	C247.163406,777.199951 249.994720,777.516907 251.895584,775.004395 
	C253.612381,772.735229 252.997665,770.199219 251.685638,767.947815 
	C250.094772,765.217957 248.265671,762.627991 246.581604,759.951050 
	C244.011612,755.865845 241.218613,751.893311 238.989578,747.627747 
	C235.740219,741.409546 235.615662,735.088501 240.181641,729.337524 
	C244.962479,723.315979 251.162933,719.829895 258.964752,721.567749 
	C275.342560,725.215881 285.217865,736.383301 291.725098,751.116150 
	C293.042023,754.097717 292.231018,756.275879 289.010101,757.390991 
	C288.071075,757.716187 287.144897,758.145508 286.302399,758.670837 
	C282.561768,761.003174 280.257172,760.724792 278.694275,755.909668 
	C276.424988,748.918396 271.735077,743.464417 265.750641,739.189575 
	C264.675018,738.421204 263.512421,737.739136 262.311157,737.189392 
	C259.736359,736.011047 257.121948,735.683044 254.880569,737.855103 
	C252.526718,740.136169 253.075531,742.846802 254.540237,745.203369 
	C258.405426,751.422119 262.795349,757.329590 266.426880,763.675415 
	C273.326233,775.731812 267.781860,788.912415 254.641937,791.898376 
	C247.573914,793.504578 241.150238,791.272156 234.915588,787.206787 
z"/>
<path fill="#000000" opacity="1.000000" stroke="none" 
	d="
M692.756592,760.791992 
	C692.786011,752.713074 696.333923,746.561462 701.400940,741.277893 
	C708.331604,734.051147 716.680725,729.035645 726.358826,726.231140 
	C730.730469,724.964294 733.938416,725.269165 734.577209,730.687622 
	C734.692810,731.667664 734.998474,732.648071 735.359558,733.572388 
	C736.758728,737.154053 736.030212,738.962524 731.772583,739.589966 
	C726.137878,740.420288 720.886169,742.710938 716.255249,746.140442 
	C714.524963,747.421753 712.860046,748.845947 711.395142,750.418945 
	C708.919800,753.076965 706.737610,756.234192 709.119446,759.779785 
	C711.434509,763.225830 715.045105,761.965027 718.218201,760.865356 
	C720.413452,760.104614 722.479797,758.979797 724.634399,758.092224 
	C729.096924,756.253784 733.481079,754.148315 738.072937,752.714661 
	C752.350586,748.257019 765.167480,760.396667 761.832947,775.044250 
	C759.121399,786.955322 741.397156,802.057068 729.182861,802.965027 
	C727.375183,803.099426 726.309265,802.518066 725.730713,800.877258 
	C725.398438,799.934753 725.057190,798.994751 724.750610,798.043762 
	C722.477722,790.992859 722.471191,790.965454 729.589172,788.565186 
	C735.402588,786.604980 740.443726,783.464417 744.422974,778.784302 
	C746.735535,776.064392 747.877441,772.911682 745.626953,769.645996 
	C743.460693,766.502441 740.391357,767.281189 737.524597,768.517151 
	C731.715637,771.021545 726.057495,773.901306 720.165039,776.181458 
	C705.823792,781.731140 696.133301,776.343994 692.756592,760.791992 
z"/>
<path fill="#000000" opacity="1.000000" stroke="none" 
	d="
M835.765808,417.848511 
	C829.262268,416.147644 825.296204,411.874908 822.365051,406.728943 
	C816.023071,395.594971 814.275879,383.650299 816.737183,371.041351 
	C817.450623,367.386475 819.169922,365.820404 822.898376,366.717712 
	C824.512268,367.106110 826.151733,367.539276 827.795837,367.619354 
	C831.409851,367.795319 831.797546,369.739227 831.010376,372.689941 
	C829.167419,379.598022 829.352112,386.504303 831.314758,393.365295 
	C831.634094,394.481689 831.966064,395.620453 832.491211,396.647095 
	C834.035217,399.665619 835.809753,402.974915 839.799194,402.218842 
	C843.726685,401.474487 844.466248,397.925415 844.687256,394.431458 
	C845.159302,386.967926 844.121460,379.469940 845.528381,372.010315 
	C846.839050,365.061523 850.205750,360.021606 857.070984,357.651581 
	C864.343445,355.140930 870.874695,356.436829 876.550720,361.592133 
	C884.003723,368.361389 886.991089,377.277283 888.083557,386.914703 
	C888.587769,391.362335 888.561584,395.887390 887.810608,400.362396 
	C887.305115,403.374023 885.717407,404.765503 882.620911,404.165527 
	C881.477051,403.943878 880.328369,403.480743 879.194824,403.518280 
	C873.870056,403.694855 873.184937,400.946106 874.190002,396.468781 
	C875.586304,390.248718 874.310913,384.198486 871.889465,378.436218 
	C870.438538,374.983673 867.941711,372.410034 863.776062,373.348755 
	C859.889893,374.224487 859.471619,377.636963 859.389648,380.853455 
	C859.241150,386.678802 859.456665,392.514465 859.265869,398.337494 
	C858.785767,412.993317 850.764465,419.756866 835.765808,417.848511 
z"/>
<path fill="#000000" opacity="1.000000" stroke="none" 
	d="
M161.406799,534.635986 
	C162.854614,533.340088 163.796982,533.582153 164.224152,535.103882 
	C165.526611,539.743774 166.776016,544.398743 168.012924,549.056702 
	C168.565109,551.136108 167.146500,552.486267 166.079269,553.953186 
	C161.900223,559.697021 157.722351,565.441711 153.591537,571.120850 
	C158.257355,576.181213 163.270645,576.343079 168.623856,574.287109 
	C172.826767,572.672913 174.853363,573.762024 175.879898,578.419434 
	C178.600311,590.762085 179.299866,588.131226 168.376678,591.124512 
	C149.925735,596.180542 131.308609,600.627930 112.831078,605.590820 
	C109.098785,606.593262 107.609962,605.527588 106.816330,602.098145 
	C104.014076,589.989075 102.479027,591.966797 114.507523,588.686829 
	C123.289719,586.292053 132.083832,583.940918 142.292572,581.187317 
	C136.053711,577.249817 130.963898,573.981873 125.818985,570.803101 
	C117.389389,565.594910 114.115707,559.531921 114.239235,548.033936 
	C118.749641,550.538391 122.873260,552.788879 126.960022,555.104431 
	C140.266113,562.643677 140.264267,562.655457 149.473373,550.451599 
	C153.384018,545.269226 157.277100,540.073608 161.406799,534.635986 
z"/>
<path fill="#000000" opacity="1.000000" stroke="none" 
	d="
M596.075867,159.713409 
	C579.839966,154.189560 582.601868,156.540344 587.287537,143.197098 
	C593.354797,125.919647 599.704651,108.741089 605.713074,91.443634 
	C607.036621,87.633362 608.673096,87.067009 612.315918,88.508080 
	C622.307251,92.460594 622.361755,92.308846 618.772583,102.591095 
	C617.466003,106.334221 616.188843,110.087616 614.542908,114.868576 
	C620.575867,113.267357 625.718323,113.752342 630.817566,115.493881 
	C642.821045,119.593430 648.595337,129.689056 644.944519,141.775131 
	C642.059814,151.324890 638.296692,160.607605 635.001160,170.036011 
	C634.063660,172.718094 632.558716,173.011429 629.997864,172.194397 
	C618.553589,168.543152 618.528809,168.607742 622.611938,157.138626 
	C624.286804,152.434174 626.076294,147.768188 627.646240,143.029236 
	C630.512085,134.378525 628.836975,129.456467 622.455566,127.288002 
	C615.259460,124.842697 610.184021,127.544891 607.064209,135.685028 
	C604.562622,142.212296 602.291199,148.827606 599.813660,155.364410 
	C599.151001,157.112762 599.123352,159.500748 596.075867,159.713409 
z"/>
<path fill="#000000" opacity="1.000000" stroke="none" 
	d="
M640.074951,790.023071 
	C637.552551,788.717407 634.888367,788.503113 633.152710,786.496582 
	C637.588379,779.966736 647.701111,776.562073 654.564941,779.266052 
	C658.284302,780.731323 661.941284,782.384949 665.735291,783.618713 
	C667.726440,784.266357 670.208313,786.969238 671.936035,784.262268 
	C673.630798,781.607056 675.195374,778.324158 673.210510,774.876526 
	C672.213257,773.144226 671.244812,771.395081 670.281494,769.643616 
	C669.800049,768.768555 668.835571,767.769897 668.984436,767.000122 
	C670.021179,761.639221 675.720459,761.954285 678.931763,759.162659 
	C680.617676,757.697021 682.302429,758.303345 683.439819,760.321655 
	C694.235168,779.478882 705.054138,798.622925 715.850647,817.779602 
	C716.422302,818.793762 717.158997,820.153687 716.112488,821.001343 
	C712.609314,823.838745 708.673523,826.089233 704.474731,827.660034 
	C702.787476,828.291199 702.235840,826.110168 701.516724,824.845825 
	C696.657410,816.302246 691.813904,807.749451 686.913330,799.229614 
	C686.206421,798.000732 685.935669,796.338257 683.868591,795.803833 
	C681.142517,801.107056 679.353577,806.905273 678.378235,812.639343 
	C676.577026,823.229126 668.211487,825.975220 660.550842,830.077148 
	C658.877197,827.699829 660.162903,825.876892 660.644226,824.047607 
	C662.253296,817.931274 663.806702,811.796387 665.609619,805.736511 
	C666.659546,802.207703 665.822205,800.304321 662.196228,798.976074 
	C654.849670,796.285095 647.671082,793.135498 640.074951,790.023071 
z"/>
<path fill="#000000" opacity="1.000000" stroke="none" 
	d="
M442.180786,833.735779 
	C452.411591,834.955200 452.433441,834.959167 454.186462,825.268250 
	C454.747223,822.168335 455.501343,819.047424 455.555603,815.925415 
	C455.630707,811.606079 457.753082,811.173523 461.374603,811.586182 
	C472.482758,812.851990 472.617615,812.759583 471.231262,823.576660 
	C468.971008,841.212891 466.511200,858.823425 464.189026,876.451843 
	C463.768494,879.644348 462.608551,881.060059 458.971985,880.505554 
	C444.521057,878.302002 430.031128,876.349731 415.542145,874.404602 
	C412.791870,874.035400 411.904877,872.809265 412.159393,870.083740 
	C413.028870,860.773010 413.271759,860.539795 422.654236,861.841370 
	C429.892395,862.845459 437.143921,863.754761 444.375885,864.800537 
	C447.278351,865.220337 448.474701,864.074402 449.160431,861.242981 
	C452.083344,849.174866 451.760040,848.647461 439.572998,847.274231 
	C434.621796,846.716370 429.710571,845.794617 424.756134,845.278259 
	C421.339508,844.922180 420.038513,843.303528 420.682190,839.992737 
	C420.745239,839.668335 420.724518,839.328613 420.761383,838.998108 
	C421.644623,831.080811 421.650665,831.033142 429.400604,831.939880 
	C433.526917,832.422607 437.630035,833.103394 442.180786,833.735779 
z"/>
<path fill="#000000" opacity="1.000000" stroke="none" 
	d="
M169.445709,274.253967 
	C178.911560,268.893036 187.860245,269.732880 196.784012,274.757660 
	C199.795532,276.453400 200.162506,278.208893 198.377548,281.156799 
	C193.640747,288.979614 189.111359,296.929626 184.598999,304.885468 
	C183.569183,306.701141 181.917313,308.322449 182.112305,310.955139 
	C186.072159,312.672363 189.160248,310.692078 191.930756,308.360992 
	C196.651978,304.388580 198.788086,299.218903 198.766342,292.971222 
	C198.744644,286.739441 204.418640,288.656097 207.691833,287.415680 
	C211.085693,286.129547 211.432663,289.270752 211.891113,291.444611 
	C214.694626,304.738037 201.136230,323.636627 187.066223,326.161377 
	C172.181274,328.832397 157.625076,318.770599 155.401093,303.451080 
	C153.606949,291.092438 159.103928,281.545898 169.445709,274.253967 
M179.447693,285.004242 
	C173.424438,285.485168 170.167633,289.289124 168.693726,294.630859 
	C167.586594,298.643341 168.209198,302.500916 172.679840,305.597534 
	C176.137802,299.651886 179.534714,293.978577 182.752213,288.205322 
	C184.259933,285.499969 182.234573,285.141968 179.447693,285.004242 
z"/>
<path fill="#000000" opacity="1.000000" stroke="none" 
	d="
M149.017426,394.805115 
	C147.425308,402.794189 145.332001,410.273285 144.610657,418.098602 
	C152.144150,417.423523 157.186737,410.100922 156.325012,401.649139 
	C156.207153,400.493195 156.165588,399.238800 155.679138,398.226868 
	C153.653244,394.012543 155.092545,391.656342 159.129868,389.609436 
	C164.879517,386.694427 165.757370,386.781281 168.040131,392.854675 
	C172.457016,404.606079 167.579697,421.206512 157.281754,429.471741 
	C149.095276,436.042236 135.408752,436.137634 125.873192,429.690582 
	C115.444618,422.639832 111.613586,408.089844 116.808334,395.262939 
	C121.672272,383.252777 133.526352,376.790314 146.218643,378.957916 
	C150.669632,379.718079 152.245514,381.717285 150.928268,386.123840 
	C150.122253,388.820190 149.717087,391.636353 149.017426,394.805115 
M133.447205,394.923096 
	C128.144684,397.942505 126.447266,402.697815 127.368324,408.413544 
	C127.958305,412.074768 129.595215,415.205811 134.413208,416.236603 
	C135.946838,408.754578 137.417099,401.581757 138.839249,394.643616 
	C136.777557,393.171417 135.462097,394.291992 133.447205,394.923096 
z"/>
<path fill="#000000" opacity="1.000000" stroke="none" 
	d="
M238.753113,199.201752 
	C253.620132,201.393738 262.746582,210.180481 264.746002,223.879868 
	C266.293060,234.480209 257.989899,247.934998 246.443253,253.538284 
	C235.632874,258.784271 223.586655,256.629089 215.279999,247.962875 
	C206.674683,238.985077 205.126099,226.877258 211.572617,215.732880 
	C217.478561,205.522995 226.348053,199.723953 238.753113,199.201752 
M248.378677,223.325333 
	C243.184250,214.698746 234.989883,211.923569 228.418900,216.565613 
	C222.797760,220.536591 221.082169,227.039749 224.145935,232.762451 
	C227.903763,239.781555 235.431259,243.127029 241.607056,240.522781 
	C248.096176,237.786423 250.845886,231.362564 248.378677,223.325333 
z"/>
<path fill="#000000" opacity="1.000000" stroke="none" 
	d="
M779.883911,217.414886 
	C784.157532,226.468903 782.701660,234.442459 776.190430,241.220032 
	C769.280884,248.412216 761.927124,255.178009 754.753235,262.115356 
	C754.045654,262.799652 753.308899,263.489227 752.151489,263.278503 
	C749.191101,262.739532 743.090698,253.712769 743.757324,250.366577 
	C736.368774,248.474258 730.792725,243.986389 726.843384,237.480606 
	C722.386414,230.138687 723.107117,223.050079 728.785522,217.465729 
	C734.464478,211.880829 740.693970,211.451416 748.319580,216.065475 
	C753.094666,218.954758 756.574951,223.258316 760.524780,227.054779 
	C761.654968,228.141068 762.631714,230.072388 764.603027,229.171005 
	C766.499329,228.303894 766.674622,226.312866 766.697205,224.432449 
	C766.753906,219.703384 763.602051,216.900635 760.398804,214.208847 
	C758.358398,212.494217 756.089233,210.973007 753.481079,210.324219 
	C749.735168,209.392410 748.827332,207.660370 750.256348,203.883972 
	C753.238525,196.002930 753.482971,195.683273 761.082825,199.571152 
	C768.951294,203.596405 775.410828,209.205673 779.883911,217.414886 
M753.876038,234.444412 
	C751.556396,232.093384 749.484436,229.448700 746.472351,227.898270 
	C744.594910,226.931854 742.622620,226.750931 740.832275,228.055649 
	C738.993164,229.395966 738.830627,231.367065 739.206055,233.431381 
	C740.143311,238.584641 746.694092,242.829849 751.702942,241.540573 
	C755.621521,240.531952 756.550537,238.199341 753.876038,234.444412 
z"/>
<path fill="#000000" opacity="1.000000" stroke="none" 
	d="
M778.594299,694.615540 
	C780.884216,691.182556 783.788391,688.567566 785.163635,684.982239 
	C783.232727,682.768433 781.098328,683.274048 779.026794,683.938721 
	C771.350891,686.401367 767.363220,691.991089 766.431763,699.718323 
	C765.687256,705.894287 760.998169,703.760010 757.642761,704.221741 
	C753.621582,704.775024 753.659058,701.819092 753.628235,699.008972 
	C753.474060,684.982910 767.642273,669.841003 782.309570,668.397400 
	C795.154114,667.133240 808.175964,677.943848 810.808289,692.056702 
	C812.699280,702.195190 805.325500,715.858582 794.891907,721.549072 
	C785.747864,726.536316 773.505798,724.901306 765.499756,717.837769 
	C763.360657,715.950500 763.405701,714.448303 765.036255,712.358215 
	C769.541443,706.583862 773.935059,700.722595 778.594299,694.615540 
M793.400696,691.509949 
	C788.827454,697.079895 784.385010,702.741089 780.459717,708.920776 
	C785.009705,711.924622 788.689697,710.540405 792.001892,708.113892 
	C795.825562,705.312622 798.042480,701.421143 797.195923,696.543457 
	C796.846436,694.529724 797.172729,691.637939 793.400696,691.509949 
z"/>
<path fill="#000000" opacity="1.000000" stroke="none" 
	d="
M166.505890,671.907166 
	C167.991669,666.460266 171.052429,662.563538 175.284088,659.683228 
	C182.984344,654.442017 190.844940,649.436890 198.573883,644.237000 
	C201.133820,642.514771 203.087921,642.527466 204.744766,645.359802 
	C205.666962,646.936340 206.694366,648.464966 207.806366,649.913757 
	C209.645126,652.309387 210.973694,654.658386 207.663498,657.146301 
	C216.871109,660.973633 221.814407,667.678467 223.678909,676.731567 
	C224.948013,682.893799 222.748947,687.889038 217.780045,691.577881 
	C212.833344,695.250000 207.535767,696.021118 201.891953,693.000122 
	C196.999207,690.381104 193.882721,686.114197 190.888000,681.670959 
	C188.970062,678.825256 187.563126,675.566895 184.592163,673.220703 
	C181.056381,675.471619 179.940811,678.448914 181.123047,682.190674 
	C182.910980,687.849548 186.654648,692.094482 191.708786,694.949463 
	C194.916580,696.761414 195.463135,698.320129 193.475067,701.544861 
	C189.066147,708.696228 188.679031,708.984558 181.974426,703.811279 
	C174.102203,697.737061 168.558685,690.052795 166.346848,680.176392 
	C165.751968,677.520081 165.551193,674.923462 166.505890,671.907166 
M199.178772,676.315674 
	C199.851379,677.050903 200.465744,677.852051 201.208099,678.508362 
	C203.057068,680.143005 205.013977,681.202515 207.477005,679.572876 
	C209.767715,678.057251 210.142075,675.898865 209.715897,673.443665 
	C209.014771,669.404419 204.672089,665.127502 200.613159,664.459900 
	C198.330444,664.084473 196.228622,664.610596 194.679291,666.320557 
	C192.899719,668.284668 195.016876,669.655884 195.786224,671.134521 
	C196.626297,672.749023 197.746887,674.217590 199.178772,676.315674 
z"/>
<path fill="#000000" opacity="1.000000" stroke="none" 
	d="
M310.957153,146.412872 
	C318.482330,129.057373 337.452362,121.729897 351.711731,130.284561 
	C356.598999,133.216614 359.905792,137.441208 362.483521,142.431000 
	C364.048859,145.461090 363.489441,147.215652 360.330780,148.684341 
	C351.883545,152.612091 343.541534,156.766708 335.170105,160.856476 
	C333.560089,161.643021 331.675598,162.047211 330.687622,163.783691 
	C333.110321,167.711426 337.675049,169.040665 343.228699,167.187225 
	C347.580566,165.734879 351.234619,163.273438 353.818970,159.292725 
	C356.092163,155.791199 359.420654,155.990295 364.944519,159.397217 
	C368.435608,161.550400 366.118347,163.784348 365.073242,165.744568 
	C359.613800,175.984283 345.139221,182.740784 332.141113,181.290543 
	C322.010925,180.160263 313.249207,171.839828 310.346161,160.575043 
	C309.151489,155.939499 309.424042,151.348282 310.957153,146.412872 
M331.402252,151.790558 
	C336.236115,149.472076 341.407501,147.732086 345.679810,144.191162 
	C341.444031,139.484787 335.616486,138.642288 330.413513,141.567230 
	C325.564728,144.293076 323.660339,148.824158 325.340027,154.449203 
	C327.160858,153.655014 328.945343,152.876663 331.402252,151.790558 
z"/>
<path fill="#000000" opacity="1.000000" stroke="none" 
	d="
M853.823853,503.703247 
	C866.832092,505.065369 875.227539,512.185852 878.412476,524.191833 
	C881.405029,535.472351 877.001282,548.238403 867.802551,554.870667 
	C861.597107,559.344788 854.594055,559.997620 847.291626,558.996887 
	C844.021912,558.548828 843.506287,556.416687 843.966492,553.514099 
	C845.526978,543.671936 846.986023,533.813354 848.435852,523.954102 
	C848.599487,522.841187 848.458008,521.683411 848.458008,520.239258 
	C843.940308,520.162659 841.322571,522.784668 839.601990,526.272583 
	C836.990723,531.565735 836.481140,537.019531 839.019592,542.640076 
	C840.501770,545.921875 838.024658,548.951294 832.649841,551.425537 
	C829.283508,552.975159 828.544189,550.300842 827.511536,548.409241 
	C820.402344,535.385803 826.246033,514.386353 838.974792,506.902496 
	C843.430298,504.282837 848.260254,503.370972 853.823853,503.703247 
M865.519043,537.780823 
	C868.474060,529.299438 865.796265,522.835022 858.647278,521.941956 
	C858.099182,525.511169 857.592834,529.103027 856.986084,532.677795 
	C856.355957,536.390076 855.769104,540.093628 856.083984,543.996521 
	C860.481995,543.966736 863.187561,541.801147 865.519043,537.780823 
z"/>
<path fill="#000000" opacity="1.000000" stroke="none" 
	d="
M798.896057,337.910278 
	C797.890259,335.966858 796.998474,334.362732 796.211487,332.708740 
	C794.762817,329.664154 794.788513,329.651917 797.495361,326.565704 
	C789.828613,322.753967 785.477966,316.387665 783.603821,308.245544 
	C781.907410,300.875671 784.744202,294.382080 791.074341,290.830750 
	C797.510803,287.219788 803.507751,288.179413 809.269531,293.634918 
	C813.103882,297.265472 815.419800,301.885101 817.895935,306.417664 
	C818.995972,308.431122 819.702148,310.709839 821.658264,312.507263 
	C825.542175,310.541870 826.942139,307.639587 825.951477,303.538849 
	C824.552612,297.748535 821.247803,293.227356 816.327454,290.040527 
	C813.606445,288.278137 812.948853,286.665863 815.135376,284.095795 
	C816.208862,282.834076 817.072998,281.386719 817.968018,279.982605 
	C819.165039,278.104767 820.547974,277.824310 822.603394,278.817108 
	C832.568359,283.630341 841.701904,300.328522 840.550903,311.452972 
	C839.829102,318.429443 835.924072,323.210571 830.240173,326.509277 
	C821.887817,331.356750 813.235046,335.683655 804.808655,340.407990 
	C801.735901,342.130737 800.200073,340.992401 798.896057,337.910278 
M798.369507,304.887451 
	C795.375366,308.083771 796.665833,311.340210 798.397583,314.461212 
	C800.289917,317.871704 803.197144,319.905365 807.241760,319.829376 
	C811.619263,319.747162 812.737549,317.916443 810.763000,313.980927 
	C809.507080,311.477631 808.219727,308.951599 806.607849,306.675537 
	C804.739990,304.037933 802.242737,302.582947 798.369507,304.887451 
z"/>
<path fill="#000000" opacity="1.000000" stroke="none" 
	d="
M849.192749,619.589478 
	C844.047180,621.099792 839.289856,620.993713 834.567505,619.500854 
	C825.839600,616.741882 817.136169,613.904053 808.387695,611.212219 
	C805.159668,610.218933 804.320190,608.651855 805.502197,605.310364 
	C810.226379,591.955872 807.554932,594.106201 819.629517,597.808411 
	C825.037537,599.466492 830.332336,601.496765 835.748901,603.123657 
	C842.927124,605.279602 847.580505,603.303711 849.686340,597.493835 
	C851.997009,591.118835 849.824524,585.475891 843.204163,582.850464 
	C835.791138,579.910828 828.128723,577.571960 820.496765,575.225586 
	C817.084473,574.176392 815.987183,572.728210 817.283447,569.127441 
	C821.775574,556.649170 819.253967,557.682434 831.568787,561.706299 
	C843.273438,565.530945 854.878723,569.664429 866.621094,573.365845 
	C870.136169,574.473816 871.394470,575.938171 869.873840,579.423401 
	C869.211304,580.941833 868.723022,582.552979 868.315125,584.162415 
	C867.538635,587.225708 866.332886,589.751648 862.521118,589.222839 
	C864.404663,605.282776 860.373901,614.514709 849.192749,619.589478 
z"/>
<path fill="#000000" opacity="1.000000" stroke="none" 
	d="
M367.132294,842.896912 
	C362.020599,844.052368 358.031250,841.210571 353.717194,839.800110 
	C351.905487,839.207825 352.592560,837.245239 353.040863,835.836609 
	C357.586121,821.554626 362.195068,807.292847 366.708557,793.000854 
	C367.621216,790.110901 369.168121,789.373230 371.938232,790.572449 
	C373.608215,791.295410 375.403809,791.777405 377.184937,792.183533 
	C380.213226,792.873901 382.431946,794.152710 381.488220,798.206665 
	C388.683167,796.067017 395.137421,796.265564 401.434692,799.412903 
	C411.306122,804.346741 415.667236,813.341187 412.643311,824.436707 
	C410.107269,833.741882 406.805298,842.836670 403.939972,852.054871 
	C403.043762,854.938049 401.519867,855.389893 398.688873,854.616577 
	C387.429932,851.541260 387.408020,851.633118 390.856384,840.511047 
	C392.582367,834.944153 394.405365,829.404236 395.986176,823.796204 
	C397.899170,817.009644 396.037598,812.573669 390.699432,810.566589 
	C384.325134,808.169983 378.711639,810.397461 376.124329,817.099121 
	C372.890594,825.475281 370.243927,834.078003 367.132294,842.896912 
z"/>
<path fill="#000000" opacity="1.000000" stroke="none" 
	d="
M520.850830,815.759399 
	C532.176880,808.523987 544.052551,808.437012 556.294312,811.200867 
	C560.400513,812.127930 560.705627,814.711243 559.290100,817.971436 
	C558.054626,820.816772 558.606812,825.540161 552.807861,823.528442 
	C547.214722,821.588196 541.308533,821.699524 535.519104,822.692566 
	C533.130066,823.102356 530.175659,823.862000 530.355103,827.104065 
	C530.538696,830.420471 533.623352,829.867798 535.790710,830.090088 
	C539.760437,830.497131 543.761414,830.588318 547.738892,830.931946 
	C556.296509,831.671204 561.655029,835.878784 563.036438,842.833618 
	C564.452576,849.963806 561.002441,856.524048 553.625305,860.382568 
	C544.480530,865.165649 534.801086,865.209229 524.922424,863.448181 
	C521.305725,862.803406 520.230469,861.145508 521.473022,857.521362 
	C524.253967,849.410278 523.919800,849.798889 530.918335,851.498413 
	C534.915344,852.469055 539.203918,852.256165 543.268494,850.950684 
	C545.346130,850.283325 547.765259,849.668640 547.592834,846.907898 
	C547.397827,843.784912 544.605591,843.679504 542.359436,843.431091 
	C538.064575,842.956299 533.741699,842.739075 529.431946,842.395386 
	C523.019165,841.884033 517.706665,839.613770 515.509277,832.984253 
	C513.266296,826.217407 515.219788,820.563904 520.850830,815.759399 
z"/>
<path fill="#000000" opacity="1.000000" stroke="none" 
	d="
M144.709747,642.235168 
	C139.432724,635.455200 136.258789,628.302246 136.705338,619.854004 
	C136.903763,616.099976 137.994629,612.675659 140.047760,609.532715 
	C141.375732,607.499756 142.942154,606.878296 145.019791,608.484558 
	C146.863556,609.910095 148.667953,611.395325 150.587204,612.712036 
	C152.734756,614.185303 152.990189,615.699158 151.961197,618.195129 
	C149.606018,623.907959 150.956329,629.450378 155.068604,633.170166 
	C158.731445,636.483459 165.351501,636.981445 170.575394,634.336670 
	C176.101593,631.538879 178.485718,627.121582 177.779602,620.822632 
	C177.253281,616.127502 174.968506,612.352905 170.400925,611.070251 
	C166.149124,609.876282 165.408356,607.590515 166.019028,603.721741 
	C167.429977,594.782898 169.699493,593.692200 177.776962,598.415222 
	C187.377136,604.028748 193.811096,618.022400 192.030350,629.415894 
	C190.307343,640.439819 181.970535,649.205261 170.439758,651.620728 
	C160.186722,653.768494 151.811203,650.119446 144.709747,642.235168 
z"/>
<path fill="#000000" opacity="1.000000" stroke="none" 
	d="
M832.436157,669.374146 
	C828.361450,674.056946 823.699890,677.077942 817.867371,678.098511 
	C814.615173,678.667603 812.652222,677.640442 812.781921,673.977966 
	C812.840759,672.315186 812.878601,670.639893 812.745361,668.984741 
	C812.496460,665.893494 813.490662,664.224060 816.810913,663.328064 
	C822.577698,661.771973 826.542786,656.118469 826.416931,650.729553 
	C826.285645,645.112305 821.398682,639.605835 814.891907,637.743774 
	C809.549194,636.214783 804.191345,638.231201 800.945618,643.015320 
	C798.389160,646.783508 798.679871,650.852234 799.626038,655.031189 
	C800.310242,658.053101 792.150269,665.770691 789.275940,664.740601 
	C787.206055,663.998718 786.678833,661.798645 785.983398,659.961548 
	C782.153259,649.843628 786.455444,636.427124 796.119080,628.141296 
	C804.744385,620.745728 816.450562,619.591370 826.376465,625.157593 
	C838.080750,631.721069 842.812195,643.843567 838.867737,657.219116 
	C837.581787,661.579895 835.523010,665.549194 832.436157,669.374146 
z"/>
<path fill="#000000" opacity="1.000000" stroke="none" 
	d="
M848.004517,464.199402 
	C847.333069,465.742279 846.736023,466.936646 846.268982,468.179901 
	C843.970642,474.299164 843.322021,475.856110 836.411133,470.193604 
	C827.191406,462.639374 824.835449,447.262726 830.542053,434.758240 
	C834.943787,425.113098 846.813416,418.503204 857.168823,419.930481 
	C869.883240,421.682922 879.124329,430.903259 881.334595,443.704193 
	C882.923889,452.908386 881.590881,461.281036 874.986145,468.246857 
	C871.300903,472.133575 870.171143,471.808502 867.052795,467.411438 
	C864.264221,463.479340 862.141907,460.348236 866.428223,455.434326 
	C870.707703,450.528198 868.278259,441.863312 862.897766,438.282349 
	C856.909973,434.297180 847.349915,435.968414 843.102478,441.742859 
	C839.170715,447.088135 840.236450,454.766602 845.594666,459.174072 
	C847.118652,460.427643 849.185547,461.275116 848.004517,464.199402 
z"/>
<path fill="#000000" opacity="1.000000" stroke="none" 
	d="
M139.759827,323.912750 
	C141.260208,320.594696 141.876694,317.261383 143.999405,314.426422 
	C148.107864,316.216614 150.549332,319.501862 153.399124,322.152161 
	C163.035507,331.114044 172.391983,340.376282 181.980255,349.390991 
	C184.460571,351.722900 185.333374,353.762634 183.865402,357.185791 
	C178.313980,370.130737 182.035034,367.877747 167.723816,368.351227 
	C155.411209,368.758514 143.107040,369.416779 130.795746,369.871857 
	C128.391602,369.960693 125.844749,370.831116 123.289680,369.047852 
	C123.831741,364.410370 126.015800,360.282349 127.899223,356.113922 
	C128.950974,353.786224 131.615906,354.177521 133.706741,354.122925 
	C141.867584,353.909760 150.032928,353.872986 158.194778,353.689667 
	C160.115875,353.646545 162.149002,353.972992 162.664047,353.945831 
	C155.635544,346.191101 148.677994,338.370026 141.529999,330.727051 
	C139.682785,328.751953 138.070221,327.084137 139.759827,323.912750 
z"/>
<path fill="#000000" opacity="1.000000" stroke="none" 
	d="
M765.427124,281.006439 
	C763.056519,272.338440 766.704834,266.413727 773.010254,261.636597 
	C778.424805,257.534393 783.922791,253.542496 789.649963,249.304993 
	C786.932007,245.532593 784.869080,242.778809 790.008484,238.964081 
	C795.240417,235.080658 797.505737,237.485870 800.156677,241.387695 
	C801.183044,240.818512 801.875671,240.398529 802.598694,240.039856 
	C805.361816,238.669022 807.640442,234.462769 810.532471,235.782684 
	C814.389648,237.543060 815.983032,242.276154 818.479675,245.779633 
	C819.468262,247.166946 818.595825,248.308273 817.465942,249.187042 
	C816.415710,250.003830 815.375427,250.871445 814.213440,251.499527 
	C810.427307,253.545975 809.946533,255.781311 812.773499,259.330292 
	C817.200317,264.887634 815.534790,269.053802 808.595520,271.476196 
	C806.607605,272.170105 805.861023,270.988831 804.903870,269.876373 
	C802.981140,267.641693 801.831360,264.742279 798.750549,262.793121 
	C793.215515,266.842987 787.442932,270.746185 782.057983,275.126068 
	C778.789551,277.784424 779.361206,281.677887 783.251038,284.901855 
	C788.789185,289.492004 782.473328,291.746490 781.212952,294.713043 
	C779.746948,298.163696 777.101257,296.177704 775.099182,294.582458 
	C770.703552,291.080078 767.482422,286.706573 765.427124,281.006439 
z"/>
<path fill="#000000" opacity="1.000000" stroke="none" 
	d="
M222.709229,733.360107 
	C226.445587,740.896545 226.449631,740.902039 219.306747,746.140625 
	C218.789520,746.520020 218.152664,746.736267 217.428070,747.100403 
	C215.653961,745.566650 213.932251,744.078186 212.246078,742.620483 
	C208.391388,744.105530 206.548782,748.567810 202.627106,748.844604 
	C200.396362,749.002075 198.910278,746.142334 197.690872,744.261658 
	C196.116165,741.832947 191.232452,740.448853 194.343674,736.235229 
	C196.190216,733.734497 199.474472,732.555481 201.259903,729.325134 
	C199.670715,727.493835 198.210587,725.458923 196.403625,723.802307 
	C192.595062,720.310486 195.042908,718.192749 197.765060,715.860046 
	C200.564713,713.460999 202.829712,711.197083 206.274826,715.487366 
	C211.134842,721.539551 211.396011,721.325867 217.194733,716.197754 
	C220.188065,713.550598 223.307251,711.033020 226.159561,708.242188 
	C229.986969,704.497253 229.735229,701.200562 225.645187,697.682495 
	C222.451538,694.935547 222.733368,692.211426 226.424957,687.272339 
	C228.984116,683.848450 231.090149,686.384094 233.222107,687.643433 
	C237.354156,690.084290 240.256699,693.737000 242.534882,697.869019 
	C246.675049,705.378235 245.235840,712.530273 238.313690,718.942627 
	C233.188812,723.690063 227.982666,728.349792 222.709229,733.360107 
z"/>
<path fill="#000000" opacity="1.000000" stroke="none" 
	d="
M585.906982,104.417221 
	C586.120667,104.956245 586.177490,105.123863 586.163330,105.285240 
	C585.244568,115.730911 585.244629,115.727005 575.164917,114.210358 
	C574.206604,114.066170 573.235229,114.009796 571.782959,113.863663 
	C570.305725,120.811623 568.585083,127.540077 567.528687,134.371262 
	C566.867126,138.649307 569.552917,140.666840 573.805664,140.872955 
	C578.966370,141.123062 580.411682,143.210556 580.342224,149.430725 
	C580.287354,154.346924 576.390198,153.985794 573.548706,153.937210 
	C567.692383,153.837051 561.997803,152.640213 557.252991,148.700851 
	C551.349121,143.799225 550.918945,137.308075 552.020325,130.484131 
	C552.866760,125.240227 553.945801,120.021713 555.205505,114.861282 
	C555.944214,111.835129 555.359802,110.052216 552.136047,109.384819 
	C546.141174,108.143738 549.598938,104.019730 549.766235,101.026848 
	C549.924072,98.203583 551.053040,96.154770 554.554749,97.255150 
	C557.267212,98.107506 558.614075,96.854355 559.026367,94.192062 
	C559.280212,92.552826 559.690308,90.937294 560.044678,89.314255 
	C560.587463,86.828323 561.832703,85.512512 564.635132,86.211937 
	C567.373657,86.895416 570.171875,87.338333 572.941406,87.899284 
	C575.252747,88.367424 576.320190,89.656006 576.074829,92.136444 
	C575.790039,95.014877 573.491882,98.214371 575.545349,100.663551 
	C577.310120,102.768417 580.862305,102.042343 583.527588,102.922485 
	C584.296875,103.176506 584.989319,103.662994 585.906982,104.417221 
z"/>
<path fill="#000000" opacity="1.000000" stroke="none" 
	d="
M181.786133,253.240845 
	C177.366623,249.939835 173.308868,246.741302 169.062546,243.816559 
	C166.177505,241.829422 165.413559,240.021591 167.840332,237.003647 
	C176.099579,226.732422 173.092804,226.734894 183.758255,234.638351 
	C198.599487,245.636154 213.253082,256.887604 228.123489,267.845276 
	C231.566254,270.382172 232.685608,272.204895 229.550888,276.057770 
	C221.882919,285.482666 224.582520,285.489807 214.739609,278.130493 
	C203.810196,269.958771 192.955048,261.687744 181.786133,253.240845 
z"/>
<path fill="#000000" opacity="1.000000" stroke="none" 
	d="
M341.367859,825.312561 
	C337.965698,832.574158 334.581024,839.432129 331.517487,846.430603 
	C330.100952,849.666565 328.493073,850.013855 325.384491,848.594177 
	C315.094147,843.894958 314.940002,843.956299 319.593475,833.916138 
	C327.488342,816.882385 335.650574,799.971497 343.419464,782.881287 
	C345.253632,778.846558 347.067169,778.242981 350.938324,780.183411 
	C362.178558,785.817688 360.873413,783.516357 355.967743,794.309692 
	C351.293610,804.593567 346.344757,814.752502 341.367859,825.312561 
z"/>
<path fill="#000000" opacity="1.000000" stroke="none" 
	d="
M299.076752,807.122498 
	C306.281830,794.512085 313.392273,782.267273 320.250641,769.882996 
	C321.968689,766.780640 323.406158,765.877319 326.815430,767.700928 
	C336.811188,773.047485 336.937775,772.940308 331.437805,782.659729 
	C322.088074,799.182373 312.565521,815.608337 303.349060,832.204529 
	C301.362366,835.782043 299.547943,836.046753 296.296783,834.044617 
	C286.493164,828.007263 285.567810,830.332397 292.197449,819.150269 
	C294.490448,815.282776 296.661896,811.343201 299.076752,807.122498 
z"/>
<path fill="#000000" opacity="1.000000" stroke="none" 
	d="
M622.941528,851.260376 
	C623.263428,852.274597 623.414368,852.924438 623.620422,853.556274 
	C627.164429,864.424744 626.210815,865.853271 614.700562,867.818848 
	C612.253540,868.236755 611.273926,867.135437 610.663452,865.232544 
	C604.004028,844.476624 597.372986,823.711609 590.728638,802.950867 
	C590.000183,800.674927 590.488831,799.179016 593.003784,798.388977 
	C607.047974,793.976929 604.110779,792.696777 608.208984,805.255310 
	C613.162964,820.436218 617.941650,835.674316 622.941528,851.260376 
z"/>
<path fill="#000000" opacity="1.000000" stroke="none" 
	d="
M584.951843,824.179382 
	C588.520752,839.121643 591.869080,853.693420 595.485779,868.198303 
	C596.376709,871.771057 595.482727,873.273560 591.955811,874.207520 
	C581.007568,877.106812 580.999573,877.227295 578.401062,866.231445 
	C574.043579,847.792297 569.846069,829.314331 565.324280,810.915833 
	C564.401489,807.161072 565.563232,805.824768 568.964294,805.029175 
	C582.459290,801.871887 579.115784,801.472717 582.187439,812.634155 
	C583.200256,816.314514 583.956604,820.065552 584.951843,824.179382 
z"/>
<path fill="#000000" opacity="1.000000" stroke="none" 
	d="
M379.427429,113.546219 
	C382.309479,110.091682 385.429260,107.384369 389.314087,105.648880 
	C390.211395,105.248024 391.422638,104.497490 392.086823,104.797928 
	C396.447083,106.770287 395.278046,111.625900 397.061279,114.995361 
	C398.151611,117.055672 396.785370,118.438179 394.732117,119.065453 
	C384.568054,122.170593 383.742981,129.492523 386.540131,138.158752 
	C388.481354,144.173233 390.349091,150.214188 392.442688,156.175537 
	C393.441437,159.019333 392.640411,160.336227 389.871124,161.419312 
	C378.489990,165.870483 378.471710,165.831726 374.919220,154.285217 
	C371.346771,142.673889 367.592316,131.116028 363.722473,119.600296 
	C362.575195,116.186272 363.109070,114.226479 366.825287,113.470596 
	C368.280548,113.174606 369.757538,112.700752 371.061737,112.003296 
	C374.306915,110.267876 376.947968,110.849663 379.427429,113.546219 
z"/>
<path fill="#000000" opacity="1.000000" stroke="none" 
	d="
M524.774231,105.001854 
	C524.873718,103.719513 524.755371,102.805969 525.069092,102.078857 
	C526.231750,99.384338 524.163818,94.926163 527.237610,93.945137 
	C531.221741,92.673531 535.800842,93.527802 539.998230,94.763290 
	C542.140625,95.393929 541.907410,97.187943 541.734375,98.876900 
	C540.226807,113.588943 538.682495,128.297379 537.238647,143.015671 
	C536.951111,145.946213 535.759827,146.980484 532.719604,146.741379 
	C521.032776,145.822250 520.915283,145.898895 521.885986,134.228760 
	C522.684753,124.624817 523.786987,115.046120 524.774231,105.001854 
z"/>
<path fill="#000000" opacity="1.000000" stroke="none" 
	d="
M637.582214,805.466187 
	C641.093933,813.973022 644.396729,822.152344 647.868164,830.259583 
	C649.023376,832.957520 648.636719,834.545227 645.756165,835.659973 
	C632.206299,840.903625 635.342407,841.671570 630.437683,829.864075 
	C625.712646,818.489319 621.121765,807.058228 616.317627,795.717224 
	C615.022156,792.658997 615.359802,791.060364 618.675964,789.627563 
	C629.333435,785.022766 629.279358,784.885254 633.732239,795.837097 
	C634.986084,798.920837 636.204468,802.018982 637.582214,805.466187 
z"/>
<path fill="#000000" opacity="1.000000" stroke="none" 
	d="
M838.265259,479.623962 
	C851.702759,479.823853 864.673889,479.617401 877.637207,480.437805 
	C881.392334,480.675446 882.438110,482.035431 882.380798,485.576263 
	C882.174622,498.317963 883.089172,496.326080 871.743652,496.249237 
	C859.109436,496.163696 846.479492,495.534729 833.844666,495.364838 
	C830.059143,495.313904 828.735474,493.709656 829.091553,490.197662 
	C829.192078,489.205261 829.273682,488.210999 829.364624,487.217621 
	C830.074341,479.468414 830.074341,479.468414 838.265259,479.623962 
z"/>
<path fill="#000000" opacity="1.000000" stroke="none" 
	d="
M896.374756,498.580933 
	C890.682556,496.637421 887.938965,493.038574 888.263245,488.358704 
	C888.629639,483.071747 892.725159,478.970825 897.532837,479.076904 
	C902.176392,479.179321 905.942688,483.258209 906.270813,488.300262 
	C906.589905,493.204071 902.747131,499.409332 896.374756,498.580933 
z"/>
<path fill="#000000" opacity="1.000000" stroke="none" 
	d="
M655.605713,845.663574 
	C658.142029,849.690002 657.889526,853.318115 655.032410,856.510925 
	C652.324158,859.537537 648.758118,860.872925 644.713928,859.938538 
	C641.174072,859.120605 638.963379,856.717407 638.257935,853.133484 
	C637.440430,848.980286 639.496582,846.085449 642.791687,843.997498 
	C647.422363,841.063171 650.888550,841.505493 655.605713,845.663574 
z"/>
<path fill="#000000" opacity="1.000000" stroke="none" 
	d="
M527.407898,83.367470 
	C524.912292,77.750465 525.796021,74.122787 530.011658,71.417000 
	C534.021912,68.843063 539.577698,69.433388 542.842346,72.780319 
	C545.779968,75.791985 546.124146,80.265587 543.684143,83.722038 
	C541.220703,87.211731 536.025818,88.462570 531.533936,86.665161 
	C529.953735,86.032852 528.618896,85.098305 527.407898,83.367470 
z"/>
</svg>