<?xml version="1.0" standalone="no"?>
<!DOCTYPE svg PUBLIC "-//W3C//DTD SVG 20010904//EN"
 "http://www.w3.org/TR/2001/REC-SVG-20010904/DTD/svg10.dtd">
<svg version="1.0" xmlns="http://www.w3.org/2000/svg"
 width="300.000000pt" height="300.000000pt" viewBox="0 0 300.000000 300.000000"
 preserveAspectRatio="xMidYMid meet">
<metadata>
Created by potrace 1.10, written by Peter Selinger 2001-2011
</metadata>
<g transform="translate(0.000000,300.000000) scale(0.100000,-0.100000)"
fill="#000000" stroke="none">
<path d="M1544 2785 c-8 -19 3 -35 26 -35 22 0 33 23 17 39 -15 15 -37 14 -43
-4z"/>
<path d="M1640 2735 c0 -8 -7 -15 -15 -15 -17 0 -21 -36 -5 -42 6 -2 6 -16 -1
-40 -7 -26 -7 -44 0 -57 11 -19 55 -36 71 -26 13 8 1 35 -16 35 -9 0 -14 11
-14 28 0 35 14 56 33 49 9 -3 17 2 20 14 4 14 0 19 -14 19 -14 0 -19 7 -19 25
0 18 -5 25 -20 25 -11 0 -20 -7 -20 -15z"/>
<path d="M1771 2727 c-21 -56 -61 -169 -61 -172 0 -2 9 -9 19 -15 17 -9 21 -4
36 39 18 55 34 66 62 46 17 -13 17 -16 1 -61 -13 -37 -14 -50 -5 -56 25 -16
34 -6 52 53 l19 62 -28 24 c-20 17 -36 23 -52 19 -23 -6 -23 -6 -9 29 19 43
19 42 -6 48 -14 4 -22 -1 -28 -16z"/>
<path d="M1459 2690 c-7 -27 -16 -50 -19 -50 -3 0 -13 19 -21 43 -22 58 -54
63 -68 10 -6 -21 -11 -44 -11 -50 0 -28 -16 -10 -33 37 -13 37 -23 50 -37 50
-26 0 -26 -2 12 -88 26 -58 36 -72 52 -70 13 2 23 18 34 53 l15 50 20 -47 c15
-36 25 -48 41 -48 18 0 25 10 39 64 9 36 20 72 23 80 4 11 0 16 -14 16 -16 0
-23 -11 -33 -50z"/>
<path d="M1539 2713 c0 -10 -4 -44 -8 -75 -6 -51 -5 -59 12 -64 10 -3 20 -4
22 -2 2 2 7 38 11 81 7 74 6 77 -15 77 -13 0 -21 -7 -22 -17z"/>
<path d="M1121 2679 c-11 -12 -21 -18 -21 -12 0 6 -9 9 -21 6 -13 -4 -18 -11
-14 -21 3 -9 14 -42 23 -74 15 -50 20 -57 37 -52 11 4 21 7 23 9 1 1 -4 21
-13 44 -15 44 -11 71 11 71 16 0 18 18 5 38 -7 11 -13 9 -30 -9z"/>
<path d="M936 2609 c-51 -40 -18 -139 46 -139 31 0 88 36 88 55 0 19 -27 19
-46 0 -16 -16 -64 -21 -64 -7 0 5 23 19 50 32 28 13 50 26 50 30 0 4 -10 16
-23 28 -29 28 -67 28 -101 1z m71 -25 c4 -13 -54 -40 -64 -30 -3 3 2 15 12 26
19 21 46 23 52 4z"/>
<path d="M2003 2543 c-27 -38 -52 -73 -56 -79 -11 -19 92 -84 134 -84 66 0
114 70 89 130 -10 25 -95 100 -113 100 -3 0 -27 -30 -54 -67z m127 -62 c0 -31
-27 -61 -54 -61 -18 0 -45 13 -75 36 -2 2 13 26 34 54 l38 51 28 -27 c17 -16
29 -38 29 -53z"/>
<path d="M784 2515 c-13 -13 -25 -24 -27 -24 -1 0 -10 -3 -19 -6 -15 -6 -12
-14 23 -64 77 -109 85 -117 103 -102 14 12 14 16 -5 40 l-21 26 21 3 c24 4 61
47 61 73 0 9 -12 31 -26 48 -33 39 -74 41 -110 6z m80 -37 c20 -28 4 -58 -30
-58 -31 0 -54 41 -34 65 18 21 46 19 64 -7z"/>
<path d="M2197 2410 c-3 -13 1 -21 14 -25 23 -7 43 -41 33 -56 -4 -6 -18 2
-36 20 -34 35 -50 38 -72 15 -25 -25 -19 -46 28 -92 l43 -42 42 45 c22 24 41
53 41 63 0 25 -27 60 -60 77 -26 13 -28 13 -33 -5z m8 -90 c16 -18 16 -20 1
-26 -19 -7 -46 12 -46 32 0 20 24 17 45 -6z"/>
<path d="M639 2391 c-44 -44 -39 -100 12 -127 36 -18 73 -10 99 23 34 44 23
95 -27 121 -34 18 -52 14 -84 -17z m75 -27 c22 -21 20 -51 -4 -64 -42 -22 -82
34 -48 68 16 16 33 15 52 -4z"/>
<path d="M492 2313 c-7 -15 6 -29 74 -79 77 -58 84 -61 98 -45 14 16 9 22 -68
79 -46 34 -86 62 -89 62 -4 0 -10 -8 -15 -17z"/>
<path d="M2312 2301 c-7 -4 -10 -14 -7 -22 3 -9 -9 -23 -30 -37 -36 -23 -44
-47 -25 -83 6 -10 18 -19 26 -19 12 0 14 7 9 28 -5 23 0 32 24 50 27 20 31 20
39 5 6 -10 16 -14 27 -9 14 5 15 9 6 20 -9 11 -9 19 1 35 16 26 -4 53 -24 33
-7 -7 -16 -8 -23 -2 -6 5 -16 5 -23 1z"/>
<path d="M479 2181 c-26 -27 -30 -37 -25 -64 11 -56 67 -83 117 -57 21 12 49
60 49 85 0 25 -33 13 -40 -14 -6 -25 -35 -50 -45 -39 -4 4 5 27 20 53 15 25
25 48 23 50 -2 3 -19 8 -36 11 -26 5 -36 1 -63 -25z m44 -46 c-17 -35 -33 -38
-33 -6 0 20 19 41 37 41 10 0 9 -8 -4 -35z"/>
<path d="M2391 2177 c-8 -11 -6 -18 9 -32 21 -19 27 -50 11 -60 -5 -3 -12 3
-15 13 -4 10 -17 29 -31 42 -23 22 -25 22 -50 6 -31 -20 -32 -50 -2 -79 12
-13 22 -28 23 -35 1 -7 2 -17 3 -23 2 -16 102 43 114 68 11 25 -4 72 -32 98
-15 13 -20 13 -30 2z m-21 -111 c-15 -15 -45 18 -36 41 7 17 9 16 27 -6 14
-17 17 -27 9 -35z"/>
<path d="M407 2060 c-4 -15 5 -29 34 -52 21 -17 39 -35 39 -40 0 -4 -24 -8
-54 -8 -50 0 -66 -9 -66 -37 0 -2 37 -3 81 -1 71 3 83 6 89 23 7 16 -3 32 -48
78 -31 31 -59 57 -63 57 -4 0 -9 -9 -12 -20z"/>
<path d="M2495 1946 c-13 -9 -20 -30 -23 -70 -3 -36 -9 -56 -17 -56 -17 0 -25
23 -25 71 0 32 -3 39 -20 39 -17 0 -20 -7 -20 -42 0 -53 31 -108 61 -108 44 0
59 18 59 71 0 36 4 51 16 56 21 8 34 -13 34 -54 0 -26 4 -33 20 -33 15 0 20 7
20 25 0 38 -25 92 -48 104 -27 14 -34 14 -57 -3z"/>
<path d="M372 1883 c-15 -6 -42 -56 -42 -78 0 -26 55 -75 85 -75 38 0 75 44
75 90 0 41 -6 51 -26 43 -8 -3 -11 -14 -8 -32 4 -19 0 -32 -17 -46 l-22 -20 7
40 c3 22 9 50 12 63 6 19 3 22 -22 21 -16 0 -35 -3 -42 -6z m30 -68 c-3 -21
-9 -34 -16 -32 -24 8 -19 67 7 67 9 0 12 -11 9 -35z"/>
<path d="M2451 1753 c-31 -26 -38 -82 -14 -112 11 -14 25 -21 31 -17 15 9 16
36 2 36 -5 0 -10 11 -10 25 0 17 8 29 25 37 35 16 59 -6 52 -47 -8 -46 6 -63
27 -34 53 76 -43 169 -113 112z"/>
<path d="M321 1707 c-36 -21 -50 -56 -51 -124 l0 -63 101 0 101 0 -4 70 c-3
59 -8 74 -29 95 -30 31 -85 41 -118 22z m91 -54 c11 -10 18 -30 18 -55 l0 -38
-60 0 -60 0 0 39 c0 23 7 46 16 55 20 21 63 20 86 -1z"/>
<path d="M2430 1576 c0 -26 1 -26 75 -26 71 0 75 1 75 23 0 21 -5 22 -75 25
-75 3 -75 3 -75 -22z"/>
<path d="M2604 1586 c-9 -24 4 -48 23 -44 12 2 18 12 18 28 0 29 -32 41 -41
16z"/>
<path d="M2462 1520 c-46 -19 -67 -137 -23 -128 9 2 15 11 13 22 -6 31 7 66
24 66 10 0 14 -6 11 -17 -3 -10 -8 -35 -12 -55 -6 -37 -5 -38 25 -38 41 0 70
31 70 75 0 33 -27 75 -49 75 -5 0 -15 2 -23 4 -7 3 -23 1 -36 -4z m72 -56 c9
-22 -1 -51 -19 -58 -17 -6 -18 -2 -9 43 7 34 18 40 28 15z"/>
<path d="M441 1397 l-32 -47 -39 25 c-26 17 -40 21 -40 12 0 -22 28 -54 59
-67 32 -13 33 -30 3 -30 -9 0 -33 -5 -54 -10 -29 -8 -35 -14 -31 -30 6 -24 10
-24 76 -6 29 8 71 20 94 26 34 9 40 14 36 31 -4 15 -11 19 -27 15 -41 -10 -50
8 -21 42 22 26 25 37 18 59 l-9 27 -33 -47z"/>
<path d="M2400 1359 c0 -4 -3 -14 -6 -22 -3 -10 3 -17 18 -22 63 -18 78 -28
78 -52 0 -32 -23 -39 -72 -20 -44 18 -58 15 -58 -12 0 -12 14 -20 45 -29 87
-23 115 -10 115 52 0 14 4 26 9 26 5 0 11 8 14 19 4 16 -7 23 -69 43 -41 13
-74 21 -74 17z"/>
<path d="M485 1242 c-4 -11 1 -22 14 -31 39 -26 17 -76 -31 -69 -18 2 -24 11
-28 38 -6 45 -34 48 -38 4 -4 -45 34 -87 78 -87 38 0 80 40 80 76 0 46 -62
103 -75 69z"/>
<path d="M2325 1154 c-31 -33 -36 -98 -7 -92 10 2 17 13 18 26 3 49 62 68 78
25 9 -22 -3 -53 -20 -53 -8 0 -14 -9 -14 -20 0 -32 37 -25 61 13 52 84 -49
173 -116 101z"/>
<path d="M539 1086 c-25 -19 -49 -41 -52 -50 -9 -23 6 -57 37 -86 22 -20 29
-22 36 -10 6 10 1 22 -16 39 -24 24 -27 42 -8 48 6 2 17 -8 24 -22 25 -47 90
-41 90 7 0 28 -18 58 -36 58 -8 0 -13 4 -10 9 7 11 -3 41 -13 41 -3 0 -27 -16
-52 -34z m71 -46 c9 -16 8 -22 -5 -26 -16 -7 -47 24 -39 38 9 15 33 8 44 -12z"/>
<path d="M2235 1014 c-14 -15 -25 -30 -25 -35 0 -4 -3 -14 -6 -23 -4 -11 0
-16 13 -16 12 0 23 11 30 30 8 20 18 30 33 30 23 0 22 -4 -19 -59 -24 -32 -25
-34 -6 -47 46 -34 114 8 115 72 0 68 -87 99 -135 48z m96 -73 c-7 -12 -21 -21
-32 -21 -21 0 -19 10 9 43 20 23 38 6 23 -22z"/>
<path d="M654 978 c-4 -6 -2 -14 4 -16 19 -6 14 -27 -13 -52 -21 -19 -27 -21
-40 -10 -21 17 -46 -3 -27 -22 9 -9 8 -16 -3 -28 -14 -15 -14 -18 0 -30 12
-10 18 -10 32 1 13 11 17 11 21 1 3 -10 7 -10 17 -2 8 6 12 17 9 24 -2 6 9 25
26 41 34 33 38 64 12 88 -22 20 -28 21 -38 5z"/>
<path d="M710 870 c-26 -26 -25 -38 6 -83 42 -62 16 -92 -30 -36 -16 19 -32
29 -41 25 -22 -8 -18 -21 16 -55 43 -43 74 -49 105 -20 27 25 25 45 -7 91 -22
31 -25 58 -6 58 14 0 48 -33 64 -63 8 -15 11 -15 28 -3 19 13 18 16 -26 60
-51 50 -78 57 -109 26z"/>
<path d="M2110 869 c-73 -29 -104 -103 -56 -135 23 -14 28 -14 72 5 26 12 51
18 56 13 14 -14 -2 -39 -33 -52 -17 -8 -29 -20 -29 -31 0 -24 17 -24 53 -1 58
39 73 85 37 117 -20 18 -40 17 -97 -6 -61 -25 -55 23 5 50 19 9 32 22 32 33 0
20 -4 21 -40 7z"/>
<path d="M1970 770 c-12 -7 -13 -13 -3 -28 19 -32 1 -46 -39 -29 -23 10 -40
12 -51 5 -27 -15 -20 -25 26 -41 45 -15 48 -23 32 -82 -8 -30 -8 -30 16 -14
13 9 29 32 34 52 6 19 13 38 16 41 3 3 16 -17 29 -44 26 -55 24 -54 50 -40 17
9 15 16 -33 100 -29 49 -54 89 -57 89 -3 1 -12 -4 -20 -9z"/>
<path d="M891 668 c-47 -84 -49 -92 -33 -104 9 -7 18 -12 18 -11 5 5 104 180
104 183 0 2 -9 8 -19 13 -17 9 -25 0 -70 -81z"/>
<path d="M984 664 c-14 -31 -34 -74 -44 -95 -20 -38 -20 -38 0 -49 19 -10 24
-3 65 86 35 74 42 99 33 106 -23 14 -29 9 -54 -48z"/>
<path d="M1813 692 c-19 -12 34 -142 57 -142 29 0 29 10 0 78 -29 69 -37 77
-57 64z"/>
<path d="M1053 618 c-16 -55 -19 -74 -10 -80 20 -13 31 -3 42 33 14 47 23 59
46 59 28 0 33 -23 16 -74 -14 -39 -14 -45 0 -50 26 -10 29 -7 47 49 13 41 14
60 6 75 -13 25 -47 43 -67 36 -8 -3 -21 1 -29 9 -9 8 -18 15 -22 15 -4 0 -17
-33 -29 -72z"/>
<path d="M1735 658 c-6 -16 50 -191 62 -195 4 -1 14 1 22 6 11 7 8 26 -19 105
-20 62 -37 96 -46 96 -8 0 -17 -6 -19 -12z"/>
<path d="M1664 644 c-7 -3 -3 -37 11 -102 19 -83 25 -97 43 -100 27 -4 27 -8
0 110 -22 92 -28 103 -54 92z"/>
<path d="M1336 622 c-3 -3 -6 -20 -6 -39 0 -31 -2 -33 -27 -28 -74 16 -73 16
-73 -4 0 -16 9 -21 45 -27 40 -5 45 -9 45 -32 0 -24 -1 -25 -54 -18 -44 5 -55
3 -60 -10 -3 -9 -6 -17 -6 -19 0 -3 132 -18 147 -16 6 0 28 119 32 177 1 13
-34 25 -43 16z"/>
<path d="M1524 605 c-20 -20 -23 -28 -14 -45 6 -12 21 -20 38 -21 15 0 36 -4
47 -8 19 -8 19 -8 -2 -19 -12 -7 -29 -9 -38 -6 -17 7 -38 -13 -29 -28 18 -28
124 12 124 47 0 20 -40 45 -73 45 -19 0 -27 4 -24 13 2 7 19 11 38 10 33 -1
53 12 43 29 -3 4 -23 8 -45 8 -29 0 -47 -7 -65 -25z"/>
<path d="M1870 511 c0 -24 13 -33 34 -25 27 10 20 44 -9 44 -18 0 -25 -5 -25
-19z"/>
</g>
</svg>
